<?xml version="1.0" standalone="no"?>
<!DOCTYPE svg PUBLIC "-//W3C//DTD SVG 1.1//EN" "http://www.w3.org/Graphics/SVG/1.1/DTD/svg11.dtd" >
<svg>
<metadata>
Created by FontForge 20090622 at Tue Aug 23 13:06:59 2016
 By deploy user
(c) 2002-2010 Typodermic Fonts. This font is not freely distributable. Visit typodermic.com for more info.
</metadata>
<defs>
<font id="NeuropolXRg-Regular" horiz-adv-x="821" >
  <font-face 
    font-family="Neuropol X Rg"
    font-weight="400"
    font-stretch="normal"
    units-per-em="1000"
    panose-1="2 0 5 3 4 0 0 2 0 4"
    ascent="773"
    descent="-227"
    x-height="520"
    cap-height="685"
    bbox="-264 -218 1766 957"
    underline-thickness="20"
    underline-position="-123"
    unicode-range="U+0020-U+2212"
  />
<missing-glyph horiz-adv-x="994" 
d="M32 -192v1131h929v-1131h-929zM215 -78q21 0 37.5 8.5t28.5 23t18.5 33.5t6.5 40q0 18 -8.5 35t-25.5 30.5t-41.5 21.5t-55.5 8q-37 0 -64 -27t-27 -81q0 -63 81 -85h3q22 -7 47 -7zM240 175q19 -6 36 -6q55 0 73 63q8 26 23 26q57 -15 96.5 -24t67 -14.5t46 -7
t34.5 -1.5q192 0 241 190l22 85q7 26 11 50t4 47q0 49 -15.5 90.5t-49.5 76t-88 62t-131 47.5q-14 3 -26 3q-31 0 -56.5 -30.5t-25.5 -87.5q0 -54 58 -70q44 -12 73 -23.5t46.5 -23.5t24.5 -24.5t7 -27.5q0 -12 -3 -22l-32 -122q-9 -32 -57 -32q-8 0 -18.5 1t-30 5t-52 12.5
l-83.5 22.5q-44 12 -81 12q-42 0 -76 -14t-58.5 -39.5t-38 -62t-13.5 -81.5q0 -61 72 -80z" />
    <glyph glyph-name="copyright" unicode="&#x28;C&#x29;" horiz-adv-x="738" 
d="M327 526q-54 0 -54 -45v-118q0 -45 55 -45h124q22 0 22 -26q0 -27 -22 -27h-129q-100 0 -100 97v122q0 95 101 95h129q22 0 22 -26q0 -27 -22 -27h-126zM626 428q0 54 -20 103t-55.5 86.5t-82.5 60t-101 22.5q-53 0 -99.5 -22t-82 -59t-56 -86.5t-20.5 -104.5
q0 -57 20.5 -107.5t56 -87.5t82 -58.5t99.5 -21.5t100 21.5t82.5 59t56 87.5t20.5 107zM679 428q0 -66 -24.5 -125.5t-66.5 -104.5t-99 -71t-122 -26q-64 0 -120 26t-98 71t-66 104.5t-24 125.5q0 67 24.5 126t66.5 103t98 70t119 26t120 -26t99.5 -70t67.5 -103t25 -126z
" />
    <glyph glyph-name="registered" unicode="&#x28;R&#x29;" horiz-adv-x="738" 
d="M464 524q0 33 -61 33h-141v-109h148q54 0 54 32v44zM514 480q0 -38 -26.5 -59t-81.5 -21h-52l153 -101q10 -4 10 -18q0 -10 -7 -18t-20 -8q-1 0 -4.5 0.5t-8.5 3.5l-215 145v-118q0 -28 -28 -28q-25 0 -25 28v305q0 15 14 15h173q118 0 118 -83v-43zM626 428
q0 54 -20 103t-54.5 86.5t-82 60t-102.5 22.5q-53 0 -100 -22t-82 -59t-55.5 -86.5t-20.5 -104.5q0 -57 20.5 -107.5t56 -87.5t82 -58.5t99.5 -21.5t100 21.5t82.5 59t56 87.5t20.5 107zM679 428q0 -66 -24.5 -125.5t-66.5 -104.5t-99 -71t-122 -26q-64 0 -120 26t-98 71
t-66 104.5t-24 125.5q0 67 24.5 126t66.5 103t98 70t119 26t120 -25.5t99.5 -70t67.5 -103.5t25 -126z" />
    <glyph glyph-name=".notdef" horiz-adv-x="994" 
d="M32 -192v1131h929v-1131h-929zM215 -78q21 0 37.5 8.5t28.5 23t18.5 33.5t6.5 40q0 18 -8.5 35t-25.5 30.5t-41.5 21.5t-55.5 8q-37 0 -64 -27t-27 -81q0 -63 81 -85h3q22 -7 47 -7zM240 175q19 -6 36 -6q55 0 73 63q8 26 23 26q57 -15 96.5 -24t67 -14.5t46 -7
t34.5 -1.5q192 0 241 190l22 85q7 26 11 50t4 47q0 49 -15.5 90.5t-49.5 76t-88 62t-131 47.5q-14 3 -26 3q-31 0 -56.5 -30.5t-25.5 -87.5q0 -54 58 -70q44 -12 73 -23.5t46.5 -23.5t24.5 -24.5t7 -27.5q0 -12 -3 -22l-32 -122q-9 -32 -57 -32q-8 0 -18.5 1t-30 5t-52 12.5
l-83.5 22.5q-44 12 -81 12q-42 0 -76 -14t-58.5 -39.5t-38 -62t-13.5 -81.5q0 -61 72 -80z" />
    <glyph glyph-name="space" unicode=" " horiz-adv-x="378" 
 />
    <glyph glyph-name="exclam" unicode="!" horiz-adv-x="288" 
d="M210 53q0 -52 -68 -52q-64 0 -64 52q0 49 64 49q68 0 68 -49zM194 195q0 -42 -52 -42q-50 0 -50 42v448q0 42 50 42q52 0 52 -42v-448z" />
    <glyph glyph-name="quotedbl" unicode="&#x22;" horiz-adv-x="328" 
d="M136 478q0 -42 -47 -42q-46 0 -46 42v170q0 41 46 41q47 0 47 -41v-170zM285 478q0 -42 -46 -42q-47 0 -47 42v170q0 41 47 41q46 0 46 -41v-170z" />
    <glyph glyph-name="numbersign" unicode="#" horiz-adv-x="772" 
d="M278 289h201l32 101h-201zM454 209h-203l-53 -176q-5 -14 -15.5 -20.5t-22.5 -6.5q-22 0 -41 14.5t-19 34.5q0 11 1 12l45 142h-91q-37 0 -37 41q0 39 37 39h115l33 101h-103q-37 0 -37 45q0 37 37 37h127l55 178q5 14 16.5 20t23.5 6q21 0 41 -13.5t20 -32.5
q0 -2 -0.5 -4l-1.5 -6l-46 -148h200l56 178q9 27 38 27q22 0 41 -14t19 -34q0 -7 -3 -10l-43 -147h72q38 0 38 -37q0 -45 -38 -45h-97l-32 -101h83q37 0 37 -39q0 -41 -37 -41h-111l-53 -176q-11 -27 -40 -27q-21 0 -39 14.5t-18 34.5q0 10 1 11z" />
    <glyph glyph-name="dollar" unicode="$" horiz-adv-x="826" 
d="M143 456q0 -68 146 -68h72v212h-102q-116 0 -116 -79v-65zM461 309v-228h84q140 0 140 70v79q0 79 -166 79h-58zM461 0v-27q0 -39 -50 -39t-50 39v27h-282q-37 0 -37 43q0 38 37 38h282v228h-50q-266 0 -266 161v37q0 172 233 172h83v15q0 45 52 45q48 0 48 -45v-306h42
q281 0 281 -172v-53q0 -163 -256 -163h-67z" />
    <glyph glyph-name="percent" unicode="%" horiz-adv-x="1037" 
d="M902 215q0 48 -86 48h-61q-98 0 -98 -56v-78q0 -51 99 -51h62q84 0 84 51v86zM372 558q0 46 -86 46h-59q-98 0 -98 -57v-77q0 -54 98 -54h61q84 0 84 54v88zM766 693q10 15 28 15q22 0 39.5 -17.5t17.5 -36.5q0 -8 -2 -14.5t-8 -12.5l-558 -623q-5 -8 -13.5 -11t-17.5 -3
q-20 0 -37.5 15.5t-17.5 38.5q0 6 2.5 13.5t8.5 12.5zM994 129q0 -129 -192 -129h-33q-199 0 -199 129v75q0 135 203 135h29q192 0 192 -133v-77zM465 472q0 -130 -193 -130h-33q-199 0 -199 130v73q0 134 203 134h29q193 0 193 -133v-74z" />
    <glyph glyph-name="ampersand" unicode="&#x26;" horiz-adv-x="956" 
d="M339 600q-112 0 -112 -53v-44q0 -25 40 -50l94 -58l200 66q40 13 40 41v41q0 57 -105 57h-157zM580 81q64 0 102 20l-331 203l-24 -9q-90 -27 -129.5 -51.5t-39.5 -49.5v-54q0 -59 156 -59h266zM766 50q-36 -25 -86 -37.5t-119 -12.5h-231q-274 0 -274 151v29
q0 36 11.5 61.5t36 46t62 37.5t89.5 36l-72 44q-28 17 -41 45t-13 64v21q0 144 230 144h123q220 0 220 -143v-19q0 -51 -22.5 -83.5t-76.5 -49.5l-146 -47l286 -175q22 45 22 98v55q0 42 47 42q50 0 50 -41v-54q0 -95 -37 -150l67 -40q21 -14 21 -30q0 -18 -14 -32.5
t-32 -14.5q-12 0 -24 9z" />
    <glyph glyph-name="quotesingle" unicode="'" horiz-adv-x="179" 
d="M136 478q0 -42 -45 -42q-48 0 -48 42v170q0 41 46 41q47 0 47 -41v-170z" />
    <glyph glyph-name="parenleft" unicode="(" horiz-adv-x="338" 
d="M274 661q-75 0 -75 -44v-538q0 -61 75 -61q37 0 37 -40q0 -42 -37 -42h-13q-164 0 -164 141v540q0 127 158 127h19q37 0 37 -40q0 -43 -37 -43z" />
    <glyph glyph-name="parenright" unicode=")" horiz-adv-x="338" 
d="M66 661q-38 0 -38 43q0 40 38 40h17q157 0 157 -127v-540q0 -141 -162 -141h-12q-38 0 -38 42q0 40 37 40q75 0 75 61v538q0 44 -74 44z" />
    <glyph glyph-name="asterisk" unicode="*" horiz-adv-x="548" 
d="M202 487l42 9l-42 8l-119 36q-25 7 -25 37q0 13 5.5 26.5t14 24.5t19.5 18t22 7q12 0 24 -12l88 -84l30 -34l-16 35l-28 128q0 24 18.5 35t42.5 11t42 -10.5t18 -29.5q0 -2 -0.5 -5t-0.5 -8l-29 -116l-15 -40l27 32l88 83q12 12 22 12q12 0 23.5 -7t20.5 -18t14.5 -25
t5.5 -28q0 -11 -5 -21t-19 -15l-121 -33l-39 -7l38 -5l120 -37q26 -11 26 -38q0 -14 -6 -27.5t-15.5 -24t-21.5 -17t-24 -6.5q-9 0 -18 9l-89 86l-27 33l15 -43l29 -122v-12q0 -19 -17 -27t-39 -8q-24 0 -45 9.5t-21 29.5v5l2 6l28 118l16 44l-27 -33l-91 -86q-12 -9 -25 -9
q-10 0 -21 7t-20.5 18t-15.5 24t-6 26q0 26 28 38z" />
    <glyph glyph-name="plus" unicode="+" horiz-adv-x="438" 
d="M407 340q0 -41 -34 -41h-108v-70q0 -40 -45 -40q-50 0 -50 40v70h-103q-36 0 -36 41q0 38 36 38h101v68q0 41 49 41q48 0 48 -41v-68h108q34 0 34 -38z" />
    <glyph glyph-name="comma" unicode="," horiz-adv-x="183" 
d="M118 -63q-5 -20 -21 -29.5t-30 -9.5q-17 0 -28 11.5t-11 25.5q0 1 0.5 1.5t0.5 2.5l31 166q4 22 21 34t35 12q20 0 32.5 -10.5t12.5 -28.5q0 -9 -1 -11z" />
    <glyph glyph-name="hyphen" unicode="-" horiz-adv-x="459" 
d="M53 246q-40 0 -40 36q0 39 40 39h358q35 0 35 -37q0 -38 -35 -38h-358z" />
    <glyph glyph-name="period" unicode="." horiz-adv-x="227" 
d="M179 53q0 -52 -65 -52t-65 52q0 49 65 49t65 -49z" />
    <glyph glyph-name="slash" unicode="/" horiz-adv-x="721" 
d="M88 -1q-12 -12 -25 -12q-20 0 -34.5 15.5t-14.5 34.5q-1 12 15 28l593 612q12 14 33 14q18 0 35 -13t17 -33q0 -18 -15 -33z" />
    <glyph glyph-name="zero" unicode="0" horiz-adv-x="905" 
d="M744 491q0 109 -147 109h-289q-148 0 -148 -109v-318q0 -92 148 -92h289q147 0 147 93v317zM847 202q0 -202 -276 -202h-237q-275 0 -275 185v293q0 201 278 201h235q275 0 275 -201v-276z" />
    <glyph glyph-name="one" unicode="1" horiz-adv-x="237" 
d="M169 38q0 -43 -52 -43q-49 0 -49 43v605q0 42 49 42q52 0 52 -42v-605z" />
    <glyph glyph-name="two" unicode="2" horiz-adv-x="941" 
d="M892 468q0 -172 -242 -172h-329q-164 0 -164 -78v-137h698q37 0 37 -39q0 -42 -37 -42h-766q-33 0 -33 34v182q0 162 282 162h323q129 0 129 76v70q0 76 -121 76h-171q-40 0 -40 40q0 39 40 39h157q237 0 237 -168v-43z" />
    <glyph glyph-name="three" unicode="3" horiz-adv-x="849" 
d="M799 484q0 -97 -108 -133q108 -33 108 -137v-39q0 -175 -276 -175h-442q-42 0 -42 42q0 39 42 39h460q153 0 153 87v67q-6 70 -149 70h-464q-43 0 -43 41q0 42 43 42h464q149 0 149 74v65q0 73 -151 73h-132q-41 0 -41 40q0 39 41 39h104q284 0 284 -156v-39z" />
    <glyph glyph-name="four" unicode="4" horiz-adv-x="954" 
d="M886 38q0 -43 -51 -43q-50 0 -50 43v140h-673q-53 0 -53 56v409q0 42 51 42q49 0 49 -42v-366h626v366q0 42 50 42q51 0 51 -42v-605z" />
    <glyph glyph-name="five" unicode="5" horiz-adv-x="966" 
d="M910 165q0 -165 -291 -165h-528q-40 0 -40 42q0 39 40 39h535q182 0 182 84v102q0 94 -147 94h-570q-32 0 -32 33v254q0 31 32 31h400q40 0 40 -39q0 -40 -40 -40h-332v-159h484q267 0 267 -174v-102z" />
    <glyph glyph-name="six" unicode="6" horiz-adv-x="976" 
d="M824 273q0 89 -167 89h-496v-184q0 -97 164 -97h354q145 0 145 85v107zM924 165q0 -165 -262 -165h-322q-281 0 -281 162v350q0 167 324 167h95q41 0 41 -39q0 -40 -41 -40h-138q-179 0 -179 -101v-54h478q285 0 285 -170v-110z" />
    <glyph glyph-name="seven" unicode="7" horiz-adv-x="874" 
d="M372 16q-14 -17 -32 -17q-20 0 -33.5 15.5t-13.5 34.5q0 14 13 30l417 521h-665q-40 0 -40 43q0 36 40 36h734q32 0 45.5 -13t13.5 -33q0 -10 -3 -20.5t-10 -18.5z" />
    <glyph glyph-name="eight" unicode="8" horiz-adv-x="970" 
d="M798 527q0 73 -144 73h-338q-143 0 -143 -73v-73q0 -65 139 -65h342q144 0 144 65v73zM810 225q0 80 -157 80h-337q-158 0 -158 -80v-78q0 -66 158 -66h337q157 0 157 67v77zM913 166q0 -166 -276 -166h-304q-274 0 -274 163v50q0 96 120 135q-108 34 -108 113v52
q0 166 277 166h273q276 0 276 -167v-52q0 -76 -106 -112q61 -18 91.5 -52.5t30.5 -82.5v-47z" />
    <glyph glyph-name="nine" unicode="9" horiz-adv-x="922" 
d="M766 321v182q0 97 -162 97h-313q-138 0 -138 -86v-106q0 -87 168 -87h445zM864 169q0 -169 -267 -169h-118q-43 0 -43 42q0 39 43 39h100q187 0 187 97v58h-428q-287 0 -287 170v112q0 161 262 161h273q278 0 278 -191v-319z" />
    <glyph glyph-name="colon" unicode=":" horiz-adv-x="227" 
d="M179 55q0 -50 -65 -50t-65 50q0 49 63 49q67 0 67 -49zM179 325q0 -50 -65 -50t-65 50t63 50q67 0 67 -50z" />
    <glyph glyph-name="semicolon" unicode=";" horiz-adv-x="209" 
d="M175 324q0 -51 -65 -51t-65 51q0 50 64 50q66 0 66 -50zM118 -63q-5 -20 -21 -29.5t-30 -9.5q-17 0 -28 11t-11 25q0 4 1 5l30 166q5 22 22 34t35 12q20 0 33 -10t13 -27v-7q0 -4 -2 -6z" />
    <glyph glyph-name="less" unicode="&#x3c;" horiz-adv-x="489" 
d="M381 492q12 5 23 5q23 0 37 -14.5t14 -32.5q0 -25 -30 -38l-247 -113l250 -116q14 -5 22 -16t8 -23q0 -21 -13.5 -36t-34.5 -15q-5 0 -10.5 1t-12.5 5l-331 163q-25 10 -25 38t27 39z" />
    <glyph glyph-name="equal" unicode="=" horiz-adv-x="499" 
d="M68 179q-37 0 -37 39q0 35 37 35h360q34 0 34 -37t-34 -37h-360zM68 351q-37 0 -37 40q0 35 37 35h360q41 0 41 -39q0 -36 -41 -36h-360z" />
    <glyph glyph-name="greater" unicode="&#x3e;" horiz-adv-x="489" 
d="M107 101q-11 -6 -24 -6q-19 0 -33.5 15t-14.5 33q0 11 7 21.5t22 15.5l248 115l-251 115q-30 10 -30 42q0 18 13.5 34t33.5 16q5 -1 11 -3l12 -4l332 -163q25 -13 25 -39q0 -28 -25 -40z" />
    <glyph glyph-name="question" unicode="?" horiz-adv-x="609" 
d="M173 55q0 -50 -69 -50q-62 0 -62 50q0 49 62 49q69 0 69 -49zM562 435q0 -162 -262 -162h-92q-51 0 -51 -45v-22q0 -49 -50 -49q-45 0 -45 49v21q0 127 156 127h103q148 0 148 68v90q0 88 -148 88h-46q-38 0 -38 39q0 40 38 40h27q260 0 260 -180v-64z" />
    <glyph glyph-name="at" unicode="@" horiz-adv-x="800" 
d="M318 279q0 -26 71 -26h72v177h-75q-68 0 -68 -28v-123zM741 289q0 -120 -126 -120h-224q-162 0 -162 109v121q0 109 160 109h131q30 0 30 -32v-223h63q35 0 35 36v270q0 41 -76 41h-329q-94 0 -95 -66l1 -377q0 -76 98 -76h61q41 0 41 -35q0 -46 -41 -46h-40
q-209 0 -209 157v377q0 145 183 145h330q169 0 169 -136v-254z" />
    <glyph glyph-name="A" unicode="A" horiz-adv-x="966" 
d="M276 267h411l-203 326zM743 185h-521l-113 -168q-8 -11 -18 -16.5t-18 -5.5q-21 0 -37.5 12.5t-16.5 34.5q0 12 8 25l389 585q11 17 29.5 26t36.5 9q39 0 63 -35l393 -585q7 -6 8.5 -13t1.5 -12q0 -21 -15.5 -33t-35.5 -12q-10 0 -21.5 5t-20.5 16z" />
    <glyph glyph-name="B" unicode="B" horiz-adv-x="924" 
d="M174 600v-222h432q144 0 144 75v68q0 79 -134 79h-442zM168 81h469q136 0 136 70v65q0 80 -166 80h-439v-215zM853 471q0 -94 -98 -130q120 -38 120 -142v-34q0 -165 -238 -165h-537q-32 0 -32 34v614q0 31 32 31h513q240 0 240 -173v-35z" />
    <glyph glyph-name="C" unicode="C" horiz-adv-x="808" 
d="M329 600q-170 0 -170 -80v-346q0 -93 187 -93h373q37 0 37 -39q0 -42 -37 -42h-387q-273 0 -273 170v350q0 159 267 159h393q37 0 37 -39q0 -40 -37 -40h-390z" />
    <glyph glyph-name="D" unicode="D" horiz-adv-x="940" 
d="M782 512q0 88 -163 88h-449v-519h446q166 0 166 97v334zM882 178q0 -178 -263 -178h-518q-33 0 -33 34v614q0 31 33 31h519q262 0 262 -167v-334z" />
    <glyph glyph-name="E" unicode="E" horiz-adv-x="851" 
d="M161 378h598q35 0 35 -41t-35 -41h-598v-128q0 -87 165 -87h433q38 0 38 -39q0 -42 -38 -42h-436q-264 0 -264 164v348q0 167 273 167h118q36 0 36 -40q0 -39 -36 -39h-79q-210 0 -210 -88v-134z" />
    <glyph glyph-name="F" unicode="F" horiz-adv-x="815" 
d="M161 296v-258q0 -43 -50 -43q-52 0 -52 43v472q0 169 266 169h90q41 0 41 -37q0 -42 -41 -42h-80q-174 0 -174 -89v-133h594q39 0 39 -39q0 -43 -39 -43h-594z" />
    <glyph glyph-name="G" unicode="G" horiz-adv-x="928" 
d="M863 166q0 -166 -253 -166h-276q-275 0 -275 165v353q0 161 278 161h108q36 0 36 -39q0 -40 -36 -40h-78q-206 0 -206 -82v-353q0 -84 176 -84h273q150 0 150 82v182q0 41 52 41q51 0 51 -41v-179z" />
    <glyph glyph-name="H" unicode="H" horiz-adv-x="950" 
d="M882 38q0 -43 -51 -43q-49 0 -49 43v258h-612v-258q0 -43 -52 -43q-50 0 -50 43v605q0 42 52 42q50 0 50 -42v-265h612v265q0 42 48 42q52 0 52 -42v-605z" />
    <glyph glyph-name="I" unicode="I" horiz-adv-x="258" 
d="M180 38q0 -42 -51 -42t-51 42v605q0 42 53 42q49 0 49 -42v-605z" />
    <glyph glyph-name="J" unicode="J" horiz-adv-x="421" 
d="M357 195q0 -195 -258 -195h-57q-42 0 -42 42q0 39 42 39h57q156 0 156 108v454q0 42 51 42t51 -42v-448z" />
    <glyph glyph-name="K" unicode="K" horiz-adv-x="815" 
d="M258 347l503 -268q12 -7 18.5 -17.5t6.5 -19.5q0 -18 -12.5 -32t-31.5 -14q-11 0 -25 8l-538 293v-259q0 -43 -49 -43q-50 0 -50 43v605q0 42 51 42q48 0 48 -42v-251l513 285q15 8 27 8q20 0 34 -14t14 -31q0 -9 -5 -18t-18 -16z" />
    <glyph glyph-name="L" unicode="L" 
d="M378 0q-314 0 -314 175v468q0 42 50 42q51 0 51 -42v-468q0 -94 209 -94h396q38 0 38 -43q0 -38 -38 -38h-392z" />
    <glyph glyph-name="M" unicode="M" horiz-adv-x="1243" 
d="M1174 38q0 -43 -53 -43q-47 0 -47 43v496l-381 -503q-28 -37 -68 -36q-46 0 -71 36l-387 502v-495q0 -43 -49 -43q-50 0 -50 43v589q0 58 57 58q40 0 67 -35l434 -555l426 560q11 14 28 22t34 8q60 0 60 -60v-587z" />
    <glyph glyph-name="N" unicode="N" horiz-adv-x="946" 
d="M876 63q0 -35 -18 -51.5t-43 -16.5q-11 0 -23.5 4.5t-23.5 15.5l-601 537v-514q0 -43 -50 -43q-49 0 -49 43v583q0 32 19.5 46.5t42.5 14.5q14 0 27.5 -4.5t24.5 -15.5l595 -526v507q0 42 52 42q47 0 47 -42v-580z" />
    <glyph glyph-name="O" unicode="O" horiz-adv-x="905" 
d="M746 497q0 103 -166 103h-243q-176 0 -176 -103v-318q0 -98 176 -98h237q172 0 172 98v318zM847 178q0 -178 -301 -178h-188q-299 0 -299 177v326q0 176 299 176h188q301 0 301 -176v-325z" />
    <glyph glyph-name="P" unicode="P" horiz-adv-x="927" 
d="M781 520q0 80 -158 80h-453v-267h447q164 0 164 82v105zM881 410q0 -160 -276 -160h-435v-212q0 -43 -52 -43q-50 0 -50 43v610q0 31 33 31h507q273 0 273 -151v-118z" />
    <glyph glyph-name="Q" unicode="Q" horiz-adv-x="925" 
d="M766 510q0 90 -192 90h-226q-187 0 -187 -90v-335q0 -94 187 -94h271q147 0 147 93v336zM867 177q0 -114 -123 -158l53 -29q8 -5 14 -16.5t6 -19.5q0 -17 -13.5 -29t-32.5 -12q-11 0 -24 7l-142 83h-285q-261 0 -261 174v331q0 171 259 171h284q265 0 265 -170v-332z" />
    <glyph glyph-name="R" unicode="R" horiz-adv-x="922" 
d="M774 511q0 89 -167 89h-437v-250h455q149 0 149 73v88zM874 432q0 -163 -258 -163h-249l430 -188q26 -14 26 -36q0 -19 -12 -34.5t-32 -15.5q-10 0 -20 6l-589 275v-238q0 -43 -50 -43q-52 0 -52 43v610q0 31 33 31h491q282 0 282 -173v-74z" />
    <glyph glyph-name="S" unicode="S" horiz-adv-x="853" 
d="M789 157q0 -157 -255 -157h-452q-37 0 -37 43q0 38 37 38h465q140 0 140 81v58q0 89 -166 89h-206q-265 0 -265 143v68q0 159 232 159h113q38 0 38 -40q0 -39 -38 -39h-129q-115 0 -115 -87v-52q0 -73 148 -73h209q141 0 211 -39t70 -120v-72z" />
    <glyph glyph-name="T" unicode="T" horiz-adv-x="749" 
d="M425 600v-562q0 -43 -51 -43q-50 0 -50 43v562h-280q-38 0 -38 42q0 37 38 37h660q37 0 37 -37q0 -42 -37 -42h-279z" />
    <glyph glyph-name="U" unicode="U" horiz-adv-x="932" 
d="M868 187q0 -187 -335 -187h-153q-316 0 -316 187v456q0 42 49 42q52 0 52 -42v-448q0 -114 200 -114h185q218 0 218 114v448q0 42 50 42t50 -42v-456z" />
    <glyph glyph-name="V" unicode="V" horiz-adv-x="963" 
d="M485 86l367 574q15 24 42 24q20 0 35.5 -13.5t15.5 -32.5q-1 -10 -8 -25l-390 -580q-26 -38 -65 -38q-40 0 -65 37l-388 580q-10 13 -10 27q0 20 15.5 32.5t35.5 12.5q25 0 41 -23z" />
    <glyph glyph-name="W" unicode="W" horiz-adv-x="1275" 
d="M641 557l-229 -520q-8 -18 -25 -28.5t-38 -10.5q-20 0 -37 10.5t-27 31.5l-264 581q-1 5 -1.5 9.5t-0.5 8.5q0 20 16.5 32.5t36.5 12.5q28 0 42 -27l237 -546l223 527q10 23 27 33.5t39 10.5q19 0 35.5 -10t24.5 -29l228 -532l231 546q12 28 44 28q19 0 36 -13t17 -33
q0 -11 -4 -19l-265 -578q-8 -22 -26 -33t-38 -11q-18 0 -37 10.5t-27 30.5z" />
    <glyph glyph-name="X" unicode="X" horiz-adv-x="851" 
d="M491 341l310 -269q16 -15 16 -32t-13.5 -30t-33.5 -13q-17 0 -34 14l-313 269l-308 -268q-17 -15 -35 -15q-19 0 -33.5 13.5t-14.5 31.5q-1 9 4.5 16t14.5 15l306 268l-308 269q-18 15 -18 33q0 17 14 29.5t34 12.5q9 0 17.5 -4t16.5 -10l310 -273l311 272q16 15 34 15
q20 0 34 -13t14 -30q-1 -8 -4.5 -16.5t-12.5 -16.5z" />
    <glyph glyph-name="Y" unicode="Y" horiz-adv-x="813" 
d="M406 367l300 302q17 14 35 14q20 0 36 -13.5t16 -30.5q0 -16 -12 -28l-323 -323l-1 -251q-5 -42 -50 -42q-50 0 -50 43v250l-324 323q-14 14 -14 28q0 17 15.5 30t35.5 13q18 0 34 -13z" />
    <glyph glyph-name="Z" unicode="Z" horiz-adv-x="804" 
d="M625 600h-549q-37 0 -37 42q0 37 37 37h645q22 0 35 -15t13 -34q0 -8 -3.5 -16.5t-11.5 -14.5l-592 -518h570q37 0 37 -39q0 -42 -37 -42h-643q-28 0 -44.5 17.5t-16.5 37.5q0 21 18 38z" />
    <glyph glyph-name="bracketleft" unicode="[" horiz-adv-x="308" 
d="M184 661v-643h60q41 0 41 -40q0 -42 -41 -42h-120q-16 0 -24 6.5t-8 27.5v740q0 21 6.5 27.5t25.5 6.5h122q39 0 39 -39q0 -44 -39 -44h-62z" />
    <glyph glyph-name="backslash" unicode="\" horiz-adv-x="722" 
d="M30 615q-16 16 -16 29q0 22 13 36.5t36 14.5q19 0 36 -17l594 -612q15 -15 15 -35q0 -19 -13 -32t-30 -13q-18 0 -33 16z" />
    <glyph glyph-name="bracketright" unicode="]" horiz-adv-x="328" 
d="M28 -22q0 40 41 40h60v643h-63q-38 0 -38 44q0 39 38 39h124q17 0 23.5 -6.5t6.5 -27.5v-740q0 -21 -7.5 -27.5t-22.5 -6.5h-121q-41 0 -41 42z" />
    <glyph glyph-name="asciicircum" unicode="^" horiz-adv-x="430" 
d="M388 674q10 -10 10 -20q0 -14 -11 -24t-25 -10q-6 0 -13.5 3t-13.5 10l-120 125l-119 -125q-10 -13 -24 -13t-27 10.5t-13 24.5q0 10 11 18l137 146q9 8 17 12.5t18 4.5q8 -1 17.5 -4.5t17.5 -12.5z" />
    <glyph glyph-name="underscore" unicode="_" horiz-adv-x="789" 
d="M29 -181q-46 0 -46 52q0 47 46 47h729q45 0 45 -49q0 -50 -45 -50h-729z" />
    <glyph glyph-name="grave" unicode="`" horiz-adv-x="236" 
d="M26 728q-11 11 -11 24q0 12 10 22.5t21 10.5q16 0 25 -12l141 -149q10 -11 10 -23q0 -13 -9.5 -23t-21.5 -10q-7 0 -13 2t-13 9z" />
    <glyph glyph-name="a" unicode="a" horiz-adv-x="841" 
d="M693 286h-434q-111 0 -111 -70v-71q0 -66 118 -66h313q114 0 114 100v107zM784 152q0 -152 -222 -152h-277q-233 0 -233 146v68q0 151 228 151h412q-9 77 -115 77h-115q-34 0 -34 40q0 38 34 38h100q222 0 222 -156v-212z" />
    <glyph glyph-name="b" unicode="b" horiz-adv-x="823" 
d="M671 356q0 86 -149 86h-364v-285q0 -78 155 -78h227q131 0 131 84v193zM766 161q0 -161 -260 -161h-175q-267 0 -267 157v486q0 42 47 42t47 -42v-123h348q260 0 260 -160v-199z" />
    <glyph glyph-name="c" unicode="c" horiz-adv-x="739" 
d="M315 0q-256 0 -256 153v214q0 153 233 153h348q44 0 44 -38q0 -40 -44 -40h-361q-126 0 -126 -72v-212q0 -79 145 -79h342q39 0 39 -42q0 -37 -39 -37h-325z" />
    <glyph glyph-name="d" unicode="d" horiz-adv-x="823" 
d="M667 441h-369q-145 0 -145 -92v-186q0 -84 139 -84h218q157 0 157 84v278zM760 152q0 -152 -265 -152h-177q-259 0 -259 143v218q0 159 259 159h349v123q0 42 45 42q48 0 48 -42v-491z" />
    <glyph glyph-name="e" unicode="e" horiz-adv-x="802" 
d="M153 295h508v77q0 70 -109 70h-254q-145 0 -145 -75v-72zM753 257q0 -43 -43 -43h-557v-65q0 -70 145 -70h104q40 0 40 -39q0 -40 -40 -40h-79q-264 0 -264 161v200q0 159 261 159h213q220 0 220 -139v-124z" />
    <glyph glyph-name="f" unicode="f" horiz-adv-x="392" 
d="M263 601q-105 0 -108 -81h188q34 0 34 -38q0 -40 -34 -40h-188v-405q0 -42 -45 -42q-46 0 -46 42v483q0 156 219 156h58q36 0 36 -38q0 -37 -35 -37h-79z" />
    <glyph glyph-name="g" unicode="g" horiz-adv-x="815" 
d="M656 79v277q0 86 -150 86h-213q-140 0 -140 -78v-206q0 -79 162 -79h341zM753 7q0 -155 -258 -155h-79q-41 0 -41 38q0 39 41 39h91q152 0 152 65v6h-325q-275 0 -275 157v205q0 158 251 158h169q274 0 274 -159v-354z" />
    <glyph glyph-name="h" unicode="h" horiz-adv-x="825" 
d="M763 37q0 -42 -48 -42t-48 42v317q0 88 -159 88h-345v-405q0 -42 -48 -42q-47 0 -47 42v606q0 42 47 42q48 0 48 -42v-123h315q285 0 285 -164v-319z" />
    <glyph glyph-name="i" unicode="i" horiz-adv-x="237" 
d="M181 594q0 -49 -66 -49q-62 0 -62 49q0 50 62 50q66 0 66 -50zM165 37q0 -42 -47 -42q-45 0 -45 42v412q0 41 43 41q49 0 49 -41v-412z" />
    <glyph glyph-name="j" unicode="j" horiz-adv-x="271" 
d="M218 597q0 -51 -64 -51q-63 0 -63 51q0 49 63 49q64 0 64 -49zM202 40q0 -153 -211 -153h-74q-41 0 -41 37q0 41 41 41h80q111 0 111 66v418q0 41 46 41q48 0 48 -41v-409z" />
    <glyph glyph-name="k" unicode="k" horiz-adv-x="674" 
d="M232 268l390 -196q10 -5 15.5 -14t5.5 -16q0 -18 -14 -32.5t-33 -14.5q-9 0 -22 6l-412 213v-177q0 -42 -46 -42q-48 0 -48 42v606q0 42 48 42q46 0 46 -42v-323l419 201q12 5 18 5q17 0 30.5 -13.5t13.5 -28.5q0 -22 -23 -32z" />
    <glyph glyph-name="l" unicode="l" horiz-adv-x="230" 
d="M163 37q0 -42 -47 -42q-48 0 -48 42v606q0 42 47 42q48 0 48 -42v-606z" />
    <glyph glyph-name="m" unicode="m" horiz-adv-x="1084" 
d="M1020 37q0 -42 -48 -42q-47 0 -47 42v330q0 75 -153 75q-182 0 -182 -88v-317q0 -42 -46 -42q-49 0 -49 42v317q0 88 -182 88q-155 0 -155 -75v-330q0 -42 -48 -42q-46 0 -46 42v319q0 164 249 164q186 0 232 -85q51 85 227 85q248 0 248 -164v-319z" />
    <glyph glyph-name="n" unicode="n" horiz-adv-x="813" 
d="M750 37q0 -42 -48 -42t-48 42v341q0 64 -129 64h-237q-130 0 -130 -64v-341q0 -42 -47 -42t-47 42v341q0 142 250 142h183q253 0 253 -142v-341z" />
    <glyph glyph-name="o" unicode="o" horiz-adv-x="803" 
d="M648 367q0 75 -134 75h-216q-145 0 -145 -83v-201q0 -79 145 -79h216q134 0 134 79v209zM744 158q0 -158 -245 -158h-190q-250 0 -250 158v201q0 161 253 161h187q245 0 245 -160v-202z" />
    <glyph glyph-name="p" unicode="p" horiz-adv-x="815" 
d="M661 370q0 72 -151 72h-208q-144 0 -144 -75v-288h379q124 0 124 76v215zM757 157q0 -157 -236 -157h-363v-117q0 -44 -48 -44q-46 0 -46 44v487q0 150 249 150h182q262 0 262 -148v-215z" />
    <glyph glyph-name="q" unicode="q" horiz-adv-x="815" 
d="M153 155q0 -76 124 -76h380v288q0 75 -143 75h-210q-151 0 -151 -72v-215zM59 372q0 148 263 148h180q251 0 251 -150v-487q0 -44 -48 -44t-48 44v117h-364q-234 0 -234 157v215z" />
    <glyph glyph-name="r" unicode="r" horiz-adv-x="404" 
d="M294 442q-135 0 -135 -80v-325q0 -42 -48 -42q-47 0 -47 42v325q0 158 240 158h43q35 0 35 -39t-29 -39h-59z" />
    <glyph glyph-name="s" unicode="s" horiz-adv-x="737" 
d="M692 138q0 -138 -198 -138h-402q-42 0 -42 38q0 41 42 41h418q85 0 85 59v31q0 58 -96 58h-223q-220 0 -220 132v34q0 127 209 127h111q41 0 41 -39t-41 -39h-133q-93 0 -93 -49v-32q0 -57 110 -57h228q204 0 204 -135v-31z" />
    <glyph glyph-name="t" unicode="t" horiz-adv-x="444" 
d="M198 442v-405q0 -42 -46 -42q-48 0 -48 42v405h-46q-40 0 -40 40q0 38 40 38h46v123q0 42 49 42q45 0 45 -42v-123h189q39 0 39 -39t-39 -39h-189z" />
    <glyph glyph-name="u" unicode="u" 
d="M758 151q0 -151 -264 -151h-164q-266 0 -266 151v337q0 40 46 40q47 0 47 -40v-337q0 -72 157 -72h195q153 0 153 70v339q0 39 49 39q47 0 47 -39v-337z" />
    <glyph glyph-name="v" unicode="v" horiz-adv-x="834" 
d="M450 17q-18 -22 -37 -22q-18 0 -33 20l-351 450q-10 10 -10 26q0 17 15 29.5t32 12.5q11 0 18.5 -4.5t14.5 -13.5l316 -413l316 416q10 12 29 12q18 0 36.5 -11t18.5 -28q0 -12 -11 -26z" />
    <glyph glyph-name="w" unicode="w" horiz-adv-x="1049" 
d="M820 29q-8 -17 -25 -25.5t-37 -8.5q-18 0 -35 8t-22 24l-176 380l-178 -380q-8 -17 -25.5 -25t-36.5 -8q-20 0 -36.5 8.5t-24.5 25.5l-201 432q-4 9 -4 19q0 21 15.5 34t33.5 13q10 0 20.5 -6t15.5 -17l185 -396l180 380q8 17 23 25.5t31 8.5q17 0 33.5 -8t23.5 -25
l180 -381l183 396q7 18 33 18q18 0 36 -11.5t18 -30.5q0 -9 -4 -16z" />
    <glyph glyph-name="x" unicode="x" horiz-adv-x="731" 
d="M365 314l261 199q13 12 30 12q20 0 33 -14.5t13 -32.5q-1 -8 -5 -16t-14 -16l-245 -186l245 -189q15 -12 15 -28q0 -19 -12.5 -34.5t-29.5 -15.5q-11 0 -24 11l-267 200l-265 -200q-10 -10 -24 -10q-17 0 -29.5 15.5t-12.5 33.5q0 16 15 28l244 189l-244 186
q-19 13 -19 32q0 20 13.5 32.5t31.5 12.5q6 0 15 -2t15 -8z" />
    <glyph glyph-name="y" unicode="y" horiz-adv-x="820" 
d="M753 -5q0 -143 -216 -143h-118q-37 0 -37 39q0 38 37 38h126q114 0 114 66v5h-348q-247 0 -247 151v337q0 39 47 39t47 -39v-337q0 -72 135 -72h366v409q0 39 46 39q48 0 48 -39v-493z" />
    <glyph glyph-name="z" unicode="z" horiz-adv-x="784" 
d="M571 442h-476q-40 0 -40 39t40 39h565q26 0 42 -15t16 -33q0 -12 -6.5 -23.5t-20.5 -21.5l-510 -348h524q38 0 38 -39q0 -40 -38 -40h-613q-26 0 -43 14.5t-17 34.5q0 14 8 23.5t23 20.5z" />
    <glyph glyph-name="braceleft" unicode="{" horiz-adv-x="296" 
d="M225 -64q-120 0 -120 73v271q0 20 -10 20q-43 0 -43 44q0 42 43 42q10 0 10 17v269q0 72 125 72h12q41 0 41 -42q0 -41 -41 -41h-32q-19 0 -19 -13v-238q0 -41 -54 -69q54 -29 54 -72v-247q0 -4 19 -4h26q39 0 39 -40q0 -42 -39 -42h-11z" />
    <glyph glyph-name="bar" unicode="|" horiz-adv-x="356" 
d="M228 -120q0 -50 -53 -50q-48 0 -48 50v827q0 42 52 42q49 0 49 -42v-827z" />
    <glyph glyph-name="braceright" unicode="}" horiz-adv-x="296" 
d="M62 -64q-38 0 -38 42q0 40 38 40h29q17 0 17 4v247q0 44 55 72q-55 25 -55 69v238q0 13 -17 13h-33q-42 0 -42 41q0 42 42 42h10q124 0 124 -72v-269q0 -17 12 -17q43 0 43 -42q0 -44 -43 -44q-12 0 -12 -20v-271q0 -73 -117 -73h-13z" />
    <glyph glyph-name="asciitilde" unicode="~" horiz-adv-x="767" 
d="M722 454q0 -138 -202 -138q-168 0 -183 126q-13 64 -58 64h-60q-79 0 -79 -61q0 -45 -46 -45q-50 0 -50 52q0 132 203 132q168 0 183 -125q13 -63 57 -63h61q79 0 79 58q0 43 45 43q50 0 50 -43z" />
    <glyph glyph-name="exclamdown" unicode="&#xa1;" horiz-adv-x="288" 
d="M210 426q0 -49 -67 -49q-65 0 -65 49q0 51 65 51q67 0 67 -51zM195 -174q0 -44 -53 -44q-49 0 -49 44v456q0 45 50 45q52 0 52 -45v-456z" />
    <glyph glyph-name="cent" unicode="&#xa2;" horiz-adv-x="851" 
d="M153 253q0 -82 147 -82h106v373h-124q-129 0 -129 -73v-218zM499 624h255q44 0 44 -40t-44 -40h-255v-373h255q42 0 42 -42q0 -36 -42 -36h-255v-59q0 -43 -45 -43q-48 0 -48 43v59h-88q-259 0 -259 155v221q0 155 237 155h110v24q0 41 46 41q47 0 47 -41v-24z" />
    <glyph glyph-name="sterling" unicode="&#xa3;" horiz-adv-x="849" 
d="M161 296v-216h594q39 0 39 -37q0 -44 -39 -44l-644 1q-52 0 -52 46v464q0 169 266 169h90q41 0 41 -37q0 -42 -41 -42h-80q-174 0 -174 -89v-133h378q39 0 39 -39q0 -43 -39 -43h-378z" />
    <glyph glyph-name="yen" unicode="&#xa5;" horiz-adv-x="851" 
d="M460 231v-53h130q35 0 35 -37q0 -38 -35 -38h-130v-66q-3 -42 -49 -42q-50 0 -50 43v65h-132q-35 0 -35 39q0 36 35 36h132v53h-132q-35 0 -35 41q0 35 35 35h112l-304 304q-11 14 -11 28q0 17 15 30.5t35 13.5q8 0 16.5 -3t15.5 -11l302 -302l301 302q14 14 33 14
q21 0 37.5 -13.5t16.5 -30.5q0 -13 -12 -28l-305 -304h109q40 0 40 -39q0 -37 -40 -37h-130z" />
    <glyph glyph-name="brokenbar" unicode="&#xa6;" horiz-adv-x="357" 
d="M229 -120q0 -50 -53 -50q-49 0 -49 50v288q0 42 52 42q50 0 50 -42v-288zM229 404q0 -49 -53 -49q-49 0 -49 49v303q0 42 52 42q50 0 50 -42v-303z" />
    <glyph glyph-name="section" unicode="&#xa7;" horiz-adv-x="668" 
d="M244 419q-94 0 -94 -49v-37q0 -55 110 -55h161q86 0 86 50v34q0 57 -97 57h-166zM604 328q0 -60 -68 -92q68 -33 68 -93q0 -143 -200 -143h-312q-42 0 -42 38q0 41 42 41h329q86 0 86 64q0 56 -95 56h-136q-220 0 -220 133v38q0 59 68 89q-68 32 -68 94q0 126 210 126h22
q44 0 44 -39q0 -38 -44 -38h-44q-94 0 -94 -49q0 -56 106 -56h142q206 0 206 -135v-34z" />
    <glyph glyph-name="dieresis" unicode="&#xa8;" horiz-adv-x="504" 
d="M213 643q0 -47 -58 -47q-57 0 -57 47q0 44 57 44q58 0 58 -44zM404 643q0 -47 -56 -47q-59 0 -59 47q0 44 59 44q56 0 56 -44z" />
    <glyph glyph-name="ordfeminine" unicode="&#xaa;" horiz-adv-x="544" 
d="M424 508h-249q-60 0 -60 -35v-42q0 -33 63 -33h184q62 0 62 54v56zM488 436q0 -95 -135 -95h-163q-143 0 -143 91v40q0 95 140 95h236q-9 33 -62 33h-67q-27 0 -27 29q0 28 27 28h59q135 0 135 -98v-123z" />
    <glyph glyph-name="guillemotleft" unicode="&#xab;" horiz-adv-x="587" 
d="M231 491q17 11 28 11q18 0 31.5 -15t13.5 -33q0 -22 -21 -37l-158 -118l158 -116q22 -16 22 -38q0 -18 -14 -32.5t-32 -14.5q-7 0 -14.5 2t-13.5 8l-199 155q-19 15 -19 37t19 37zM501 491q6 5 13.5 7.5t13.5 3.5q19 0 31.5 -15t12.5 -33q0 -23 -20 -37l-158 -118
l158 -116q13 -8 17 -18t4 -20q0 -18 -13 -32.5t-32 -14.5q-6 0 -14 2t-13 8l-201 155q-19 14 -19 37q0 11 5 19.5t14 17.5z" />
    <glyph glyph-name="macron" unicode="&#xaf;" horiz-adv-x="478" 
d="M59 600q-44 0 -44 39q0 40 44 40h358q46 0 46 -38q0 -41 -46 -41h-358z" />
    <glyph glyph-name="degree" unicode="&#xb0;" horiz-adv-x="415" 
d="M312 617q0 23 -8.5 43t-22.5 35t-33 23.5t-40 8.5q-22 0 -41 -9.5t-33 -24.5t-22 -35t-8 -41q0 -25 8.5 -45.5t23 -35t33 -22.5t39.5 -8t40 9t33.5 24t22.5 35t8 43zM368 618q0 -35 -11.5 -66t-32.5 -54t-50.5 -37t-65.5 -14q-34 0 -63.5 13t-51 36t-34 54.5t-12.5 67.5
q0 35 12.5 65.5t34 53.5t51 36t63.5 13t63.5 -13.5t51 -36t33.5 -53.5t12 -65z" />
    <glyph glyph-name="plusminus" unicode="&#xb1;" horiz-adv-x="445" 
d="M56 88q-38 0 -38 38q0 36 38 36h306q36 0 36 -34q0 -40 -36 -40h-306zM398 340q0 -41 -36 -41h-106v-70q0 -40 -45 -40q-50 0 -50 40v70h-106q-35 0 -35 41q0 38 35 38h104v68q0 41 48 41q49 0 49 -41v-68h106q36 0 36 -38z" />
    <glyph glyph-name="twosuperior" unicode="&#xb2;" horiz-adv-x="656" 
d="M597 518q0 -135 -185 -135h-156q-99 0 -99 -38v-82h400q40 0 40 -43q0 -42 -40 -42h-461q-37 0 -37 37v129q0 127 210 127h154q74 0 74 37v49q0 37 -70 37h-118q-45 0 -45 44q0 41 45 41h111q90 0 133.5 -31.5t43.5 -100.5v-29z" />
    <glyph glyph-name="threesuperior" unicode="&#xb3;" horiz-adv-x="665" 
d="M606 527q0 -59 -67 -90q67 -31 67 -96v-28q0 -135 -207 -135h-295q-45 0 -45 42q0 43 45 43h308q95 0 95 48v46q0 12 -23 23l2 -1q-33 11 -71 11h-311q-45 0 -45 45q0 43 45 43h311q18 0 33.5 3.5t30.5 5.5h-1q29 11 29 27v46q0 34 -93 34h-89q-47 0 -47 44q0 41 47 41
h70q211 0 211 -122v-30z" />
    <glyph glyph-name="acute" unicode="&#xb4;" horiz-adv-x="236" 
d="M71 579q-5 -7 -11.5 -9t-13.5 -2q-11 0 -21 10t-10 23q0 12 11 23l139 149q12 12 26 12q12 0 21.5 -10.5t9.5 -22.5q0 -8 -2.5 -13t-7.5 -11z" />
    <glyph glyph-name="mu" unicode="&#x3bc;" horiz-adv-x="817" 
d="M64 488q0 39 46 39q47 0 47 -39v-409h364q137 0 137 72v337q0 39 46 39q49 0 49 -39v-337q0 -151 -247 -151h-349v-103q0 -45 -47 -45q-46 0 -46 45v591z" />
    <glyph glyph-name="paragraph" unicode="&#xb6;" horiz-adv-x="753" 
d="M157 528q0 -75 91 -75h340v147h-344q-87 0 -87 -72zM639 -5q-51 0 -51 43v332h-147v-332q0 -42 -52 -42q-50 0 -50 42v332h-76q-204 0 -204 158q0 151 197 151h400q34 0 34 -31v-610q0 -43 -51 -43z" />
    <glyph glyph-name="periodcentered" unicode="&#xb7;" horiz-adv-x="227" 
d="M179 280q0 -51 -65 -51t-65 51t65 51t65 -51z" />
    <glyph glyph-name="cedilla" unicode="&#xb8;" horiz-adv-x="261" 
d="M246 -43q0 -122 -134 -122h-58q-39 0 -39 35t39 35h60q49 0 49 52v33q0 39 43 39q40 0 40 -39v-33z" />
    <glyph glyph-name="onesuperior" unicode="&#xb9;" horiz-adv-x="217" 
d="M159 219q0 -43 -52 -43q-48 0 -48 43v421q0 43 49 43q51 0 51 -43v-421z" />
    <glyph glyph-name="ordmasculine" unicode="&#xba;" horiz-adv-x="521" 
d="M396 561q0 39 -71 39h-127q-81 0 -81 -43v-118q0 -41 81 -41h127q71 0 71 41v122zM465 439q0 -98 -150 -98h-112q-152 0 -152 98v118q0 100 155 100h109q150 0 150 -100v-118z" />
    <glyph glyph-name="guillemotright" unicode="&#xbb;" horiz-adv-x="588" 
d="M355 109q-13 -10 -29 -10q-18 0 -31 14t-13 32q0 21 20 36l159 119l-159 116q-11 8 -16 18.5t-5 19.5q0 18 13.5 33.5t31.5 15.5t29 -11l200 -155q19 -16 19 -37q0 -22 -20 -37zM84 109q-8 -6 -13.5 -8t-11.5 -2q-20 0 -32.5 14t-12.5 32q0 9 5 18.5t15 17.5l158 119
l-158 116q-21 15 -21 35q0 19 12 35.5t34 16.5q14 0 25 -11l201 -155q8 -8 14 -17t6 -20q0 -21 -21 -37z" />
    <glyph glyph-name="onequarter" unicode="&#xbc;" horiz-adv-x="1447" 
d="M158 219q0 -43 -51 -43q-48 0 -48 43v421q0 43 49 43q50 0 50 -43v-421zM239 -1q-16 -13 -30 -13q-45 0 -45 46q0 17 14 33l594 612q15 15 36 15q49 0 49 -44q0 -19 -17 -36zM1390 34q0 -44 -51 -44q-49 0 -49 44v84h-423q-27 0 -39 12t-12 41v284q0 43 48 43
q49 0 49 -43v-241h377v241q0 43 49 43q51 0 51 -43v-421z" />
    <glyph glyph-name="onehalf" unicode="&#xbd;" horiz-adv-x="1294" 
d="M158 219q0 -43 -51 -43q-48 0 -48 43v421q0 43 49 43q50 0 50 -43v-421zM224 -1q-13 -13 -31 -13q-44 0 -44 46q0 17 14 33l594 612q13 15 37 15q48 0 48 -44q0 -20 -16 -36zM1236 340q0 -134 -185 -134h-157q-97 0 -97 -40v-81h398q41 0 41 -42q0 -43 -41 -43h-461
q-39 0 -39 38v127q0 127 212 127h153q74 0 74 38v48q0 38 -68 38h-119q-44 0 -44 44t44 44h111q178 0 178 -134v-30z" />
    <glyph glyph-name="threequarters" unicode="&#xbe;" horiz-adv-x="1824" 
d="M618 -1q-16 -13 -32 -13q-44 0 -44 46q0 17 14 33l594 612q15 15 37 15q49 0 49 -44q0 -19 -17 -36zM1766 36q0 -45 -51 -45q-48 0 -48 45v84h-424q-26 0 -38 12.5t-12 41.5v283q0 44 50 44q47 0 47 -44v-241h377v241q0 44 48 44q51 0 51 -44v-421zM605 527
q0 -56 -61 -90q61 -31 61 -96v-28q0 -135 -207 -135h-296q-43 0 -43 42q0 43 43 43h308q95 0 95 48v46q0 12 -21 23l2 -1q-35 11 -72 11h-312q-43 0 -43 45q0 43 43 43h312q17 0 33.5 2.5t29 7t20.5 11t8 15.5v46q0 34 -93 34h-89q-46 0 -46 44q0 41 46 41h71
q211 0 211 -122v-30z" />
    <glyph glyph-name="questiondown" unicode="&#xbf;" horiz-adv-x="588" 
d="M435 423q0 50 63 50q66 0 66 -50q0 -51 -63 -51q-66 0 -66 51zM18 55q0 149 262 149h130q38 0 38 48v15q0 51 50 51q45 0 45 -51v-28q0 -113 -168 -113h-113q-75 0 -112.5 -20t-37.5 -55v-79q0 -96 150 -96h45q37 0 37 -39q0 -40 -51 -40h-15q-260 2 -260 173v85z" />
    <glyph glyph-name="Agrave" unicode="&#xc0;" horiz-adv-x="966" 
d="M19 0zM276 267h411l-203 326zM743 185h-521l-113 -168q-8 -11 -18 -16.5t-18 -5.5q-21 0 -37.5 12.5t-16.5 34.5q0 12 8 25l389 585q11 17 29.5 26t36.5 9q39 0 63 -35l393 -585q7 -6 8.5 -13t1.5 -12q0 -21 -15.5 -33t-35.5 -12q-10 0 -21.5 5t-20.5 16zM391 876
q-11 11 -11 24q0 12 10 22.5t21 10.5q16 0 25 -12l141 -149q10 -11 10 -23q0 -13 -9.5 -23t-21.5 -10q-7 0 -13 2t-13 9z" />
    <glyph glyph-name="Aacute" unicode="&#xc1;" horiz-adv-x="966" 
d="M19 0zM276 267h411l-203 326zM743 185h-521l-113 -168q-8 -11 -18 -16.5t-18 -5.5q-21 0 -37.5 12.5t-16.5 34.5q0 12 8 25l389 585q11 17 29.5 26t36.5 9q39 0 63 -35l393 -585q7 -6 8.5 -13t1.5 -12q0 -21 -15.5 -33t-35.5 -12q-10 0 -21.5 5t-20.5 16zM436 727
q-5 -7 -11.5 -9t-13.5 -2q-11 0 -21 10t-10 23q0 12 11 23l139 149q12 12 26 12q12 0 21.5 -10.5t9.5 -22.5q0 -8 -2.5 -13t-7.5 -11z" />
    <glyph glyph-name="Acircumflex" unicode="&#xc2;" horiz-adv-x="966" 
d="M19 0zM276 267h411l-203 326zM743 185h-521l-113 -168q-8 -11 -18 -16.5t-18 -5.5q-21 0 -37.5 12.5t-16.5 34.5q0 12 8 25l389 585q11 17 29.5 26t36.5 9q39 0 63 -35l393 -585q7 -6 8.5 -13t1.5 -12q0 -21 -15.5 -33t-35.5 -12q-10 0 -21.5 5t-20.5 16zM653 767
q11 -16 11 -25q0 -14 -12 -25.5t-23 -11.5q-13 0 -23 13v-1l-123 128l-122 -128q-9 -12 -21 -12q-15 0 -26 11.5t-11 25.5q0 5 2 9.5l5 11.5l138 145q8 7 16 11t19 4q13 0 21 -4t14 -11z" />
    <glyph glyph-name="Atilde" unicode="&#xc3;" horiz-adv-x="966" 
d="M19 0zM276 267h411l-203 326zM743 185h-521l-113 -168q-8 -11 -18 -16.5t-18 -5.5q-21 0 -37.5 12.5t-16.5 34.5q0 12 8 25l389 585q11 17 29.5 26t36.5 9q39 0 63 -35l393 -585q7 -6 8.5 -13t1.5 -12q0 -21 -15.5 -33t-35.5 -12q-10 0 -21.5 5t-20.5 16zM300 751
q-41 0 -41 36q0 39 41 39h365q42 0 42 -37q0 -38 -42 -38h-365z" />
    <glyph glyph-name="Adieresis" unicode="&#xc4;" horiz-adv-x="966" 
d="M19 0zM276 267h411l-203 326zM743 185h-521l-113 -168q-8 -11 -18 -16.5t-18 -5.5q-21 0 -37.5 12.5t-16.5 34.5q0 12 8 25l389 585q11 17 29.5 26t36.5 9q39 0 63 -35l393 -585q7 -6 8.5 -13t1.5 -12q0 -21 -15.5 -33t-35.5 -12q-10 0 -21.5 5t-20.5 16zM444 791
q0 -47 -58 -47q-57 0 -57 47q0 44 57 44q58 0 58 -44zM635 791q0 -47 -56 -47q-59 0 -59 47q0 44 59 44q56 0 56 -44z" />
    <glyph glyph-name="Aring" unicode="&#xc5;" horiz-adv-x="966" 
d="M19 0zM276 267h411l-203 326zM743 185h-521l-113 -168q-8 -11 -18 -16.5t-18 -5.5q-21 0 -37.5 12.5t-16.5 34.5q0 12 8 25l389 585q11 17 29.5 26t36.5 9q39 0 63 -35l393 -585q7 -6 8.5 -13t1.5 -12q0 -21 -15.5 -33t-35.5 -12q-10 0 -21.5 5t-20.5 16zM542 841
q0 26 -17 42t-40 16q-26 0 -42.5 -16t-16.5 -42q0 -20 16.5 -36.5t42.5 -16.5q23 0 40 16.5t17 36.5zM597 841q0 -22 -9 -42t-24 -35.5t-35.5 -25t-43.5 -9.5q-25 0 -46 9.5t-36 25t-23.5 35.5t-8.5 42q0 53 36 86h-1q31 30 79 30q23 0 43.5 -9t35.5 -24.5t24 -37t9 -45.5z
" />
    <glyph glyph-name="AE" unicode="&#xc6;" horiz-adv-x="1168" 
d="M349 378h177v222h-28zM578 0q-52 0 -52 42v254h-230l-186 -279q-15 -22 -37 -22q-21 0 -37.5 14t-16.5 34q0 12 8 23l390 586q18 27 67 27h374q36 0 36 -40q0 -39 -36 -39h-228v-222h447q35 0 35 -41t-35 -41h-447v-215h447q36 0 36 -39q0 -42 -36 -42h-499z" />
    <glyph glyph-name="Ccedilla" unicode="&#xc7;" horiz-adv-x="808" 
d="M329 600q-170 0 -170 -80v-346q0 -93 187 -93h373q37 0 37 -39q0 -42 -37 -42h-210v-43q0 -122 -135 -122h-58q-39 0 -39 35t39 35h60q49 0 49 52v43h-93q-273 0 -273 170v350q0 159 267 159h393q37 0 37 -39q0 -40 -37 -40h-390z" />
    <glyph glyph-name="Egrave" unicode="&#xc8;" horiz-adv-x="851" 
d="M59 0zM161 378h598q35 0 35 -41t-35 -41h-598v-128q0 -87 165 -87h433q38 0 38 -39q0 -42 -38 -42h-436q-264 0 -264 164v348q0 167 273 167h118q36 0 36 -40q0 -39 -36 -39h-79q-210 0 -210 -88v-134zM284 876q-11 11 -11 24q0 12 10 22.5t21 10.5q16 0 25 -12l141 -149
q10 -11 10 -23q0 -13 -9.5 -23t-21.5 -10q-7 0 -13 2t-13 9z" />
    <glyph glyph-name="Eacute" unicode="&#xc9;" horiz-adv-x="851" 
d="M59 0zM161 378h598q35 0 35 -41t-35 -41h-598v-128q0 -87 165 -87h433q38 0 38 -39q0 -42 -38 -42h-436q-264 0 -264 164v348q0 167 273 167h118q36 0 36 -40q0 -39 -36 -39h-79q-210 0 -210 -88v-134zM378 727q-5 -7 -11.5 -9t-13.5 -2q-11 0 -21 10t-10 23q0 12 11 23
l139 149q12 12 26 12q12 0 21.5 -10.5t9.5 -22.5q0 -8 -2.5 -13t-7.5 -11z" />
    <glyph glyph-name="Ecircumflex" unicode="&#xca;" horiz-adv-x="851" 
d="M59 0zM161 378h598q35 0 35 -41t-35 -41h-598v-128q0 -87 165 -87h433q38 0 38 -39q0 -42 -38 -42h-436q-264 0 -264 164v348q0 167 273 167h118q36 0 36 -40q0 -39 -36 -39h-79q-210 0 -210 -88v-134zM546 767q11 -16 11 -25q0 -14 -12 -25.5t-23 -11.5q-13 0 -23 13v-1
l-123 128l-122 -128q-9 -12 -21 -12q-15 0 -26 11.5t-11 25.5q0 5 2 9.5l5 11.5l138 145q8 7 16 11t19 4q13 0 21 -4t14 -11z" />
    <glyph glyph-name="Edieresis" unicode="&#xcb;" horiz-adv-x="851" 
d="M59 0zM161 378h598q35 0 35 -41t-35 -41h-598v-128q0 -87 165 -87h433q38 0 38 -39q0 -42 -38 -42h-436q-264 0 -264 164v348q0 167 273 167h118q36 0 36 -40q0 -39 -36 -39h-79q-210 0 -210 -88v-134zM339 791q0 -47 -58 -47q-57 0 -57 47q0 44 57 44q58 0 58 -44z
M530 791q0 -47 -56 -47q-59 0 -59 47q0 44 59 44q56 0 56 -44z" />
    <glyph glyph-name="Igrave" unicode="&#xcc;" horiz-adv-x="258" 
d="M26 0zM180 38q0 -42 -51 -42t-51 42v605q0 42 53 42q49 0 49 -42v-605zM37 876q-11 11 -11 24q0 12 10 22.5t21 10.5q16 0 25 -12l141 -149q10 -11 10 -23q0 -13 -9.5 -23t-21.5 -10q-7 0 -13 2t-13 9z" />
    <glyph glyph-name="Iacute" unicode="&#xcd;" horiz-adv-x="258" 
d="M26 0zM180 38q0 -42 -51 -42t-51 42v605q0 42 53 42q49 0 49 -42v-605zM82 727q-5 -7 -11.5 -9t-13.5 -2q-11 0 -21 10t-10 23q0 12 11 23l139 149q12 12 26 12q12 0 21.5 -10.5t9.5 -22.5q0 -8 -2.5 -13t-7.5 -11z" />
    <glyph glyph-name="Icircumflex" unicode="&#xce;" horiz-adv-x="258" 
d="M0 0zM180 38q0 -42 -51 -42t-51 42v605q0 42 53 42q49 0 49 -42v-605zM299 767q11 -16 11 -25q0 -14 -12 -25.5t-23 -11.5q-13 0 -23 13v-1l-123 128l-122 -128q-9 -12 -21 -12q-15 0 -26 11.5t-11 25.5q0 5 2 9.5l5 11.5l138 145q8 7 16 11t19 4q13 0 21 -4t14 -11z" />
    <glyph glyph-name="Idieresis" unicode="&#xcf;" horiz-adv-x="258" 
d="M0 0zM180 38q0 -42 -51 -42t-51 42v605q0 42 53 42q49 0 49 -42v-605zM93 791q0 -47 -58 -47q-57 0 -57 47q0 44 57 44q58 0 58 -44zM284 791q0 -47 -56 -47q-59 0 -59 47q0 44 59 44q56 0 56 -44z" />
    <glyph glyph-name="Eth" unicode="&#xd0;" horiz-adv-x="940" 
d="M40 306q-40 0 -40 36q0 37 40 37h28v269q0 31 33 31h519q262 0 262 -167v-334q0 -178 -263 -178h-518q-33 0 -33 34v272h-28zM782 512q0 88 -163 88h-449v-221h228q35 0 35 -35q0 -38 -35 -38h-228v-225h446q166 0 166 97v334z" />
    <glyph glyph-name="Ntilde" unicode="&#xd1;" horiz-adv-x="946" 
d="M68 0zM876 63q0 -35 -18 -51.5t-43 -16.5q-11 0 -23.5 4.5t-23.5 15.5l-601 537v-514q0 -43 -50 -43q-49 0 -49 43v583q0 32 19.5 46.5t42.5 14.5q14 0 27.5 -4.5t24.5 -15.5l595 -526v507q0 42 52 42q47 0 47 -42v-580zM289 751q-41 0 -41 36q0 39 41 39h365
q42 0 42 -37q0 -38 -42 -38h-365z" />
    <glyph glyph-name="Ograve" unicode="&#xd2;" horiz-adv-x="905" 
d="M59 0zM746 497q0 103 -166 103h-243q-176 0 -176 -103v-318q0 -98 176 -98h237q172 0 172 98v318zM847 178q0 -178 -301 -178h-188q-299 0 -299 177v326q0 176 299 176h188q301 0 301 -176v-325zM360 876q-11 11 -11 24q0 12 10 22.5t21 10.5q16 0 25 -12l141 -149
q10 -11 10 -23q0 -13 -9.5 -23t-21.5 -10q-7 0 -13 2t-13 9z" />
    <glyph glyph-name="Oacute" unicode="&#xd3;" horiz-adv-x="905" 
d="M59 0zM746 497q0 103 -166 103h-243q-176 0 -176 -103v-318q0 -98 176 -98h237q172 0 172 98v318zM847 178q0 -178 -301 -178h-188q-299 0 -299 177v326q0 176 299 176h188q301 0 301 -176v-325zM405 727q-5 -7 -11.5 -9t-13.5 -2q-11 0 -21 10t-10 23q0 12 11 23
l139 149q12 12 26 12q12 0 21.5 -10.5t9.5 -22.5q0 -8 -2.5 -13t-7.5 -11z" />
    <glyph glyph-name="Ocircumflex" unicode="&#xd4;" horiz-adv-x="905" 
d="M59 0zM746 497q0 103 -166 103h-243q-176 0 -176 -103v-318q0 -98 176 -98h237q172 0 172 98v318zM847 178q0 -178 -301 -178h-188q-299 0 -299 177v326q0 176 299 176h188q301 0 301 -176v-325zM622 767q11 -16 11 -25q0 -14 -12 -25.5t-23 -11.5q-13 0 -23 13v-1
l-123 128l-122 -128q-9 -12 -21 -12q-15 0 -26 11.5t-11 25.5q0 5 2 9.5l5 11.5l138 145q8 7 16 11t19 4q13 0 21 -4t14 -11z" />
    <glyph glyph-name="Otilde" unicode="&#xd5;" horiz-adv-x="905" 
d="M59 0zM746 497q0 103 -166 103h-243q-176 0 -176 -103v-318q0 -98 176 -98h237q172 0 172 98v318zM847 178q0 -178 -301 -178h-188q-299 0 -299 177v326q0 176 299 176h188q301 0 301 -176v-325zM270 751q-41 0 -41 36q0 39 41 39h365q42 0 42 -37q0 -38 -42 -38h-365z
" />
    <glyph glyph-name="Odieresis" unicode="&#xd6;" horiz-adv-x="905" 
d="M59 0zM746 497q0 103 -166 103h-243q-176 0 -176 -103v-318q0 -98 176 -98h237q172 0 172 98v318zM847 178q0 -178 -301 -178h-188q-299 0 -299 177v326q0 176 299 176h188q301 0 301 -176v-325zM415 791q0 -47 -58 -47q-57 0 -57 47q0 44 57 44q58 0 58 -44zM606 791
q0 -47 -56 -47q-59 0 -59 47q0 44 59 44q56 0 56 -44z" />
    <glyph glyph-name="multiply" unicode="&#xd7;" horiz-adv-x="361" 
d="M31 174q0 13 12 27l81 79l-81 82q-12 13 -12 28q0 17 11.5 28.5t28.5 11.5t27 -13l81 -80l83 83q10 12 27 12t29 -12.5t12 -27.5q0 -16 -13 -29l-83 -83l83 -81q13 -12 13 -28q0 -17 -12 -29t-29 -12q-16 0 -27 14l-83 82l-81 -81q-10 -13 -27 -13t-28.5 12.5t-11.5 29.5
z" />
    <glyph glyph-name="Oslash" unicode="&#xd8;" horiz-adv-x="978" 
d="M183 192v-14q0 -10 1 -10l498 424q-7 3 -27 5.5t-52 2.5h-243q-177 0 -177 -103v-305zM768 497q0 8 -1.5 18t-6.5 22l-517 -439q32 -17 117 -17h236q172 0 172 98v318zM869 178q0 -178 -299 -178h-191q-299 0 -299 177v326q0 176 299 176h191q299 0 299 -176v-325z" />
    <glyph glyph-name="Ugrave" unicode="&#xd9;" horiz-adv-x="932" 
d="M64 0zM868 187q0 -187 -335 -187h-153q-316 0 -316 187v456q0 42 49 42q52 0 52 -42v-448q0 -114 200 -114h185q218 0 218 114v448q0 42 50 42t50 -42v-456zM374 876q-11 11 -11 24q0 12 10 22.5t21 10.5q16 0 25 -12l141 -149q10 -11 10 -23q0 -13 -9.5 -23t-21.5 -10
q-7 0 -13 2t-13 9z" />
    <glyph glyph-name="Uacute" unicode="&#xda;" horiz-adv-x="932" 
d="M64 0zM868 187q0 -187 -335 -187h-153q-316 0 -316 187v456q0 42 49 42q52 0 52 -42v-448q0 -114 200 -114h185q218 0 218 114v448q0 42 50 42t50 -42v-456zM419 727q-5 -7 -11.5 -9t-13.5 -2q-11 0 -21 10t-10 23q0 12 11 23l139 149q12 12 26 12q12 0 21.5 -10.5
t9.5 -22.5q0 -8 -2.5 -13t-7.5 -11z" />
    <glyph glyph-name="Ucircumflex" unicode="&#xdb;" horiz-adv-x="932" 
d="M64 0zM868 187q0 -187 -335 -187h-153q-316 0 -316 187v456q0 42 49 42q52 0 52 -42v-448q0 -114 200 -114h185q218 0 218 114v448q0 42 50 42t50 -42v-456zM634 767q11 -16 11 -25q0 -14 -12 -25.5t-23 -11.5q-13 0 -23 13v-1l-123 128l-122 -128q-9 -12 -21 -12
q-15 0 -26 11.5t-11 25.5q0 5 2 9.5l5 11.5l138 145q8 7 16 11t19 4q13 0 21 -4t14 -11z" />
    <glyph glyph-name="Udieresis" unicode="&#xdc;" horiz-adv-x="932" 
d="M64 0zM868 187q0 -187 -335 -187h-153q-316 0 -316 187v456q0 42 49 42q52 0 52 -42v-448q0 -114 200 -114h185q218 0 218 114v448q0 42 50 42t50 -42v-456zM427 791q0 -47 -58 -47q-57 0 -57 47q0 44 57 44q58 0 58 -44zM618 791q0 -47 -56 -47q-59 0 -59 47q0 44 59 44
q56 0 56 -44z" />
    <glyph glyph-name="Yacute" unicode="&#xdd;" horiz-adv-x="813" 
d="M19 0zM406 367l300 302q17 14 35 14q20 0 36 -13.5t16 -30.5q0 -16 -12 -28l-323 -323l-1 -251q-5 -42 -50 -42q-50 0 -50 43v250l-324 323q-14 14 -14 28q0 17 15.5 30t35.5 13q18 0 34 -13zM359 727q-5 -7 -11.5 -9t-13.5 -2q-11 0 -21 10t-10 23q0 12 11 23l139 149
q12 12 26 12q12 0 21.5 -10.5t9.5 -22.5q0 -8 -2.5 -13t-7.5 -11z" />
    <glyph glyph-name="Thorn" unicode="&#xde;" horiz-adv-x="927" 
d="M781 398q0 79 -158 79h-453v-264h447q164 0 164 80v105zM170 129v-96q-5 -38 -52 -38q-50 0 -50 43v605q0 42 53 42q49 0 49 -42v-85h438q273 0 273 -150v-120q0 -159 -276 -159h-435z" />
    <glyph glyph-name="germandbls" unicode="&#xdf;" horiz-adv-x="829" 
d="M783 157q0 -157 -235 -157h-222q-41 0 -41 40q0 39 41 39h231q125 0 125 72v76q0 57 -93 57h-19q-220 0 -220 131v126q0 60 -66 60h-48q-78 0 -78 -60v-507q0 -43 -48 -43q-46 0 -46 43v507q0 135 172 135h48q160 0 160 -145v-114q0 -56 110 -56h23q206 0 206 -134v-70z
" />
    <glyph glyph-name="agrave" unicode="&#xe0;" horiz-adv-x="841" 
d="M52 0zM693 286h-434q-111 0 -111 -70v-71q0 -66 118 -66h313q114 0 114 100v107zM784 152q0 -152 -222 -152h-277q-233 0 -233 146v68q0 151 228 151h412q-9 77 -115 77h-115q-34 0 -34 40q0 38 34 38h100q222 0 222 -156v-212zM425 728q-11 11 -11 24q0 12 10 22.5
t21 10.5q16 0 25 -12l141 -149q10 -11 10 -23q0 -13 -9.5 -23t-21.5 -10q-7 0 -13 2t-13 9z" />
    <glyph glyph-name="aacute" unicode="&#xe1;" horiz-adv-x="841" 
d="M52 0zM693 286h-434q-111 0 -111 -70v-71q0 -66 118 -66h313q114 0 114 100v107zM784 152q0 -152 -222 -152h-277q-233 0 -233 146v68q0 151 228 151h412q-9 77 -115 77h-115q-34 0 -34 40q0 38 34 38h100q222 0 222 -156v-212zM470 579q-5 -7 -11.5 -9t-13.5 -2
q-11 0 -21 10t-10 23q0 12 11 23l139 149q12 12 26 12q12 0 21.5 -10.5t9.5 -22.5q0 -8 -2.5 -13t-7.5 -11z" />
    <glyph glyph-name="acircumflex" unicode="&#xe2;" horiz-adv-x="841" 
d="M52 0zM693 286h-434q-111 0 -111 -70v-71q0 -66 118 -66h313q114 0 114 100v107zM784 152q0 -152 -222 -152h-277q-233 0 -233 146v68q0 151 228 151h412q-9 77 -115 77h-115q-34 0 -34 40q0 38 34 38h100q222 0 222 -156v-212zM688 619q11 -16 11 -25q0 -14 -12 -25.5
t-23 -11.5q-13 0 -23 13v-1l-123 128l-122 -128q-9 -12 -21 -12q-15 0 -26 11.5t-11 25.5q0 5 2 9.5l5 11.5l138 145q8 7 16 11t19 4q13 0 21 -4t14 -11z" />
    <glyph glyph-name="atilde" unicode="&#xe3;" horiz-adv-x="841" 
d="M52 0zM693 286h-434q-111 0 -111 -70v-71q0 -66 118 -66h313q114 0 114 100v107zM784 152q0 -152 -222 -152h-277q-233 0 -233 146v68q0 151 228 151h412q-9 77 -115 77h-115q-34 0 -34 40q0 38 34 38h100q222 0 222 -156v-212zM335 603q-41 0 -41 36q0 39 41 39h365
q42 0 42 -37q0 -38 -42 -38h-365z" />
    <glyph glyph-name="adieresis" unicode="&#xe4;" horiz-adv-x="841" 
d="M52 0zM693 286h-434q-111 0 -111 -70v-71q0 -66 118 -66h313q114 0 114 100v107zM784 152q0 -152 -222 -152h-277q-233 0 -233 146v68q0 151 228 151h412q-9 77 -115 77h-115q-34 0 -34 40q0 38 34 38h100q222 0 222 -156v-212zM479 643q0 -47 -58 -47q-57 0 -57 47
q0 44 57 44q58 0 58 -44zM670 643q0 -47 -56 -47q-59 0 -59 47q0 44 59 44q56 0 56 -44z" />
    <glyph glyph-name="aring" unicode="&#xe5;" horiz-adv-x="841" 
d="M52 0zM693 286h-434q-111 0 -111 -70v-71q0 -66 118 -66h313q114 0 114 100v107zM784 152q0 -152 -222 -152h-277q-233 0 -233 146v68q0 151 228 151h412q-9 77 -115 77h-115q-34 0 -34 40q0 38 34 38h100q222 0 222 -156v-212zM576 693q0 26 -17 42t-40 16
q-26 0 -42.5 -16t-16.5 -42q0 -20 16.5 -36.5t42.5 -16.5q23 0 40 16.5t17 36.5zM631 693q0 -22 -9 -42t-24 -35.5t-35.5 -25t-43.5 -9.5q-25 0 -46 9.5t-36 25t-23.5 35.5t-8.5 42q0 53 36 86h-1q31 30 79 30q23 0 43.5 -9t35.5 -24.5t24 -37t9 -45.5z" />
    <glyph glyph-name="ae" unicode="&#xe6;" horiz-adv-x="1438" 
d="M1389 257q0 -43 -43 -43h-557v-65q0 -70 145 -70h103q41 0 41 -39q0 -40 -41 -40h-80q-147 0 -213 51q-54 -51 -182 -51h-277q-233 0 -233 146v68q0 151 228 151h412q-9 77 -115 77h-115q-34 0 -34 40q0 38 34 38h100q128 0 180 -51q66 51 213 51h214q220 0 220 -139
v-124zM693 286h-434q-111 0 -111 -70v-71q0 -66 118 -66h313q114 0 114 96v111zM789 295h507v77q0 70 -109 70h-253q-145 0 -145 -75v-72z" />
    <glyph glyph-name="ccedilla" unicode="&#xe7;" horiz-adv-x="739" 
d="M453 0v-43q0 -122 -135 -122h-58q-40 0 -40 35t40 35h61q47 0 47 52v43h-53q-256 0 -256 153v214q0 153 233 153h348q44 0 44 -38q0 -40 -44 -40h-361q-126 0 -126 -72v-212q0 -79 145 -79h342q39 0 39 -42q0 -37 -39 -37h-187z" />
    <glyph glyph-name="egrave" unicode="&#xe8;" horiz-adv-x="802" 
d="M59 0zM153 295h508v77q0 70 -109 70h-254q-145 0 -145 -75v-72zM753 257q0 -43 -43 -43h-557v-65q0 -70 145 -70h104q40 0 40 -39q0 -40 -40 -40h-79q-264 0 -264 161v200q0 159 261 159h213q220 0 220 -139v-124zM308 728q-11 11 -11 24q0 12 10 22.5t21 10.5
q16 0 25 -12l141 -149q10 -11 10 -23q0 -13 -9.5 -23t-21.5 -10q-7 0 -13 2t-13 9z" />
    <glyph glyph-name="eacute" unicode="&#xe9;" horiz-adv-x="802" 
d="M59 0zM153 295h508v77q0 70 -109 70h-254q-145 0 -145 -75v-72zM753 257q0 -43 -43 -43h-557v-65q0 -70 145 -70h104q40 0 40 -39q0 -40 -40 -40h-79q-264 0 -264 161v200q0 159 261 159h213q220 0 220 -139v-124zM353 579q-5 -7 -11.5 -9t-13.5 -2q-11 0 -21 10t-10 23
q0 12 11 23l139 149q12 12 26 12q12 0 21.5 -10.5t9.5 -22.5q0 -8 -2.5 -13t-7.5 -11z" />
    <glyph glyph-name="ecircumflex" unicode="&#xea;" horiz-adv-x="802" 
d="M59 0zM153 295h508v77q0 70 -109 70h-254q-145 0 -145 -75v-72zM753 257q0 -43 -43 -43h-557v-65q0 -70 145 -70h104q40 0 40 -39q0 -40 -40 -40h-79q-264 0 -264 161v200q0 159 261 159h213q220 0 220 -139v-124zM571 619q11 -16 11 -25q0 -14 -12 -25.5t-23 -11.5
q-13 0 -23 13v-1l-123 128l-122 -128q-9 -12 -21 -12q-15 0 -26 11.5t-11 25.5q0 5 2 9.5l5 11.5l138 145q8 7 16 11t19 4q13 0 21 -4t14 -11z" />
    <glyph glyph-name="edieresis" unicode="&#xeb;" horiz-adv-x="802" 
d="M59 0zM153 295h508v77q0 70 -109 70h-254q-145 0 -145 -75v-72zM753 257q0 -43 -43 -43h-557v-65q0 -70 145 -70h104q40 0 40 -39q0 -40 -40 -40h-79q-264 0 -264 161v200q0 159 261 159h213q220 0 220 -139v-124zM363 643q0 -47 -58 -47q-57 0 -57 47q0 44 57 44
q58 0 58 -44zM554 643q0 -47 -56 -47q-59 0 -59 47q0 44 59 44q56 0 56 -44z" />
    <glyph glyph-name="igrave" unicode="&#xec;" horiz-adv-x="228" 
d="M12 0zM161 37q0 -42 -47 -42q-46 0 -46 42v440q0 41 45 41q48 0 48 -41v-440zM23 728q-11 11 -11 24q0 12 10 22.5t21 10.5q16 0 25 -12l141 -149q10 -11 10 -23q0 -13 -9.5 -23t-21.5 -10q-7 0 -13 2t-13 9z" />
    <glyph glyph-name="iacute" unicode="&#xed;" horiz-adv-x="228" 
d="M12 0zM161 37q0 -42 -47 -42q-46 0 -46 42v440q0 41 45 41q48 0 48 -41v-440zM68 579q-5 -7 -11.5 -9t-13.5 -2q-11 0 -21 10t-10 23q0 12 11 23l139 149q12 12 26 12q12 0 21.5 -10.5t9.5 -22.5q0 -8 -2.5 -13t-7.5 -11z" />
    <glyph glyph-name="icircumflex" unicode="&#xee;" horiz-adv-x="228" 
d="M0 0zM161 37q0 -42 -47 -42q-46 0 -46 42v440q0 41 45 41q48 0 48 -41v-440zM286 619q11 -16 11 -25q0 -14 -12 -25.5t-23 -11.5q-13 0 -23 13v-1l-123 128l-122 -128q-9 -12 -21 -12q-15 0 -26 11.5t-11 25.5q0 5 2 9.5l5 11.5l138 145q8 7 16 11t19 4q13 0 21 -4
t14 -11z" />
    <glyph glyph-name="idieresis" unicode="&#xef;" horiz-adv-x="228" 
d="M0 0zM161 37q0 -42 -47 -42q-46 0 -46 42v440q0 41 45 41q48 0 48 -41v-440zM78 643q0 -47 -58 -47q-57 0 -57 47q0 44 57 44q58 0 58 -44zM269 643q0 -47 -56 -47q-59 0 -59 47q0 44 59 44q56 0 56 -44z" />
    <glyph glyph-name="eth" unicode="&#xf0;" horiz-adv-x="810" 
d="M753 160q0 -160 -274 -160h-169q-251 0 -251 158v205q0 157 275 157h225q35 0 35 -39t-38 -39h-241q-162 0 -162 -80v-207q0 -76 140 -76l213 -1q150 -2 150 86v362q0 73 -149 73h-91q-41 0 -41 39q0 38 41 38h79q258 0 258 -164v-352z" />
    <glyph glyph-name="ntilde" unicode="&#xf1;" horiz-adv-x="813" 
d="M64 0zM750 37q0 -42 -48 -42t-48 42v341q0 64 -129 64h-237q-130 0 -130 -64v-341q0 -42 -47 -42t-47 42v341q0 142 250 142h183q253 0 253 -142v-341zM223 603q-41 0 -41 36q0 39 41 39h365q42 0 42 -37q0 -38 -42 -38h-365z" />
    <glyph glyph-name="ograve" unicode="&#xf2;" horiz-adv-x="803" 
d="M59 0zM648 367q0 75 -134 75h-216q-145 0 -145 -83v-201q0 -79 145 -79h216q134 0 134 79v209zM744 158q0 -158 -245 -158h-190q-250 0 -250 158v201q0 161 253 161h187q245 0 245 -160v-202zM309 728q-11 11 -11 24q0 12 10 22.5t21 10.5q16 0 25 -12l141 -149
q10 -11 10 -23q0 -13 -9.5 -23t-21.5 -10q-7 0 -13 2t-13 9z" />
    <glyph glyph-name="oacute" unicode="&#xf3;" horiz-adv-x="803" 
d="M59 0zM648 367q0 75 -134 75h-216q-145 0 -145 -83v-201q0 -79 145 -79h216q134 0 134 79v209zM744 158q0 -158 -245 -158h-190q-250 0 -250 158v201q0 161 253 161h187q245 0 245 -160v-202zM354 579q-5 -7 -11.5 -9t-13.5 -2q-11 0 -21 10t-10 23q0 12 11 23l139 149
q12 12 26 12q12 0 21.5 -10.5t9.5 -22.5q0 -8 -2.5 -13t-7.5 -11z" />
    <glyph glyph-name="ocircumflex" unicode="&#xf4;" horiz-adv-x="803" 
d="M59 0zM648 367q0 75 -134 75h-216q-145 0 -145 -83v-201q0 -79 145 -79h216q134 0 134 79v209zM744 158q0 -158 -245 -158h-190q-250 0 -250 158v201q0 161 253 161h187q245 0 245 -160v-202zM571 619q11 -16 11 -25q0 -14 -12 -25.5t-23 -11.5q-13 0 -23 13v-1l-123 128
l-122 -128q-9 -12 -21 -12q-15 0 -26 11.5t-11 25.5q0 5 2 9.5l5 11.5l138 145q8 7 16 11t19 4q13 0 21 -4t14 -11z" />
    <glyph glyph-name="otilde" unicode="&#xf5;" horiz-adv-x="803" 
d="M59 0zM648 367q0 75 -134 75h-216q-145 0 -145 -83v-201q0 -79 145 -79h216q134 0 134 79v209zM744 158q0 -158 -245 -158h-190q-250 0 -250 158v201q0 161 253 161h187q245 0 245 -160v-202zM219 603q-41 0 -41 36q0 39 41 39h365q42 0 42 -37q0 -38 -42 -38h-365z" />
    <glyph glyph-name="odieresis" unicode="&#xf6;" horiz-adv-x="803" 
d="M59 0zM648 367q0 75 -134 75h-216q-145 0 -145 -83v-201q0 -79 145 -79h216q134 0 134 79v209zM744 158q0 -158 -245 -158h-190q-250 0 -250 158v201q0 161 253 161h187q245 0 245 -160v-202zM363 643q0 -47 -58 -47q-57 0 -57 47q0 44 57 44q58 0 58 -44zM554 643
q0 -47 -56 -47q-59 0 -59 47q0 44 59 44q56 0 56 -44z" />
    <glyph glyph-name="divide" unicode="&#xf7;" horiz-adv-x="495" 
d="M311 148q0 -50 -66 -50q-64 0 -64 50t62 50q68 0 68 -50zM311 417q0 -50 -66 -50q-64 0 -64 50q0 52 62 52q68 0 68 -52zM69 246q-38 0 -38 36q0 39 38 39h359q35 0 35 -37q0 -38 -35 -38h-359z" />
    <glyph glyph-name="oslash" unicode="&#xf8;" horiz-adv-x="803" 
d="M648 367q0 8 -5 21l-416 -304q14 -3 31.5 -4t39.5 -1h216q134 0 134 79v209zM153 158q0 -10 0.5 -17t3.5 -12l421 307q-17 2 -32 4t-32 2h-216q-145 0 -145 -83v-201zM744 158q0 -158 -245 -158h-190q-250 0 -250 158v201q0 161 253 161h187q245 0 245 -160v-202z" />
    <glyph glyph-name="ugrave" unicode="&#xf9;" 
d="M64 0zM758 151q0 -151 -264 -151h-164q-266 0 -266 151v337q0 40 46 40q47 0 47 -40v-337q0 -72 157 -72h195q153 0 153 70v339q0 39 49 39q47 0 47 -39v-337zM318 728q-11 11 -11 24q0 12 10 22.5t21 10.5q16 0 25 -12l141 -149q10 -11 10 -23q0 -13 -9.5 -23t-21.5 -10
q-7 0 -13 2t-13 9z" />
    <glyph glyph-name="uacute" unicode="&#xfa;" 
d="M64 0zM758 151q0 -151 -264 -151h-164q-266 0 -266 151v337q0 40 46 40q47 0 47 -40v-337q0 -72 157 -72h195q153 0 153 70v339q0 39 49 39q47 0 47 -39v-337zM363 579q-5 -7 -11.5 -9t-13.5 -2q-11 0 -21 10t-10 23q0 12 11 23l139 149q12 12 26 12q12 0 21.5 -10.5
t9.5 -22.5q0 -8 -2.5 -13t-7.5 -11z" />
    <glyph glyph-name="ucircumflex" unicode="&#xfb;" 
d="M64 0zM758 151q0 -151 -264 -151h-164q-266 0 -266 151v337q0 40 46 40q47 0 47 -40v-337q0 -72 157 -72h195q153 0 153 70v339q0 39 49 39q47 0 47 -39v-337zM580 619q11 -16 11 -25q0 -14 -12 -25.5t-23 -11.5q-13 0 -23 13v-1l-123 128l-122 -128q-9 -12 -21 -12
q-15 0 -26 11.5t-11 25.5q0 5 2 9.5l5 11.5l138 145q8 7 16 11t19 4q13 0 21 -4t14 -11z" />
    <glyph glyph-name="udieresis" unicode="&#xfc;" 
d="M64 0zM758 151q0 -151 -264 -151h-164q-266 0 -266 151v337q0 40 46 40q47 0 47 -40v-337q0 -72 157 -72h195q153 0 153 70v339q0 39 49 39q47 0 47 -39v-337zM373 643q0 -47 -58 -47q-57 0 -57 47q0 44 57 44q58 0 58 -44zM564 643q0 -47 -56 -47q-59 0 -59 47
q0 44 59 44q56 0 56 -44z" />
    <glyph glyph-name="yacute" unicode="&#xfd;" horiz-adv-x="820" 
d="M64 0zM753 -5q0 -143 -216 -143h-118q-37 0 -37 39q0 38 37 38h126q114 0 114 66v5h-348q-247 0 -247 151v337q0 39 47 39t47 -39v-337q0 -72 135 -72h366v409q0 39 46 39q48 0 48 -39v-493zM363 579q-5 -7 -11.5 -9t-13.5 -2q-11 0 -21 10t-10 23q0 12 11 23l139 149
q12 12 26 12q12 0 21.5 -10.5t9.5 -22.5q0 -8 -2.5 -13t-7.5 -11z" />
    <glyph glyph-name="thorn" unicode="&#xfe;" horiz-adv-x="820" 
d="M666 370q0 72 -152 72h-206q-145 0 -145 -75v-288h379q124 0 124 76v215zM763 157q0 -157 -237 -157h-363v-117q0 -44 -48 -44q-47 0 -47 44v760q0 42 47 42q48 0 48 -42v-152q29 14 66.5 21.5t88.5 7.5h181q264 0 264 -148v-215z" />
    <glyph glyph-name="ydieresis" unicode="&#xff;" horiz-adv-x="820" 
d="M64 0zM753 -5q0 -143 -216 -143h-118q-37 0 -37 39q0 38 37 38h126q114 0 114 66v5h-348q-247 0 -247 151v337q0 39 47 39t47 -39v-337q0 -72 135 -72h366v409q0 39 46 39q48 0 48 -39v-493zM372 643q0 -47 -58 -47q-57 0 -57 47q0 44 57 44q58 0 58 -44zM563 643
q0 -47 -56 -47q-59 0 -59 47q0 44 59 44q56 0 56 -44z" />
    <glyph glyph-name="Amacron" unicode="&#x100;" horiz-adv-x="966" 
d="M19 0zM276 267h411l-203 326zM743 185h-521l-113 -168q-8 -11 -18 -16.5t-18 -5.5q-21 0 -37.5 12.5t-16.5 34.5q0 12 8 25l389 585q11 17 29.5 26t36.5 9q39 0 63 -35l393 -585q7 -6 8.5 -13t1.5 -12q0 -21 -15.5 -33t-35.5 -12q-10 0 -21.5 5t-20.5 16zM303 748
q-44 0 -44 39q0 40 44 40h358q46 0 46 -38q0 -41 -46 -41h-358z" />
    <glyph glyph-name="amacron" unicode="&#x101;" horiz-adv-x="841" 
d="M52 0zM693 286h-434q-111 0 -111 -70v-71q0 -66 118 -66h313q114 0 114 100v107zM784 152q0 -152 -222 -152h-277q-233 0 -233 146v68q0 151 228 151h412q-9 77 -115 77h-115q-34 0 -34 40q0 38 34 38h100q222 0 222 -156v-212zM338 600q-44 0 -44 39q0 40 44 40h358
q46 0 46 -38q0 -41 -46 -41h-358z" />
    <glyph glyph-name="Abreve" unicode="&#x102;" horiz-adv-x="966" 
d="M19 0zM276 267h411l-203 326zM743 185h-521l-113 -168q-8 -11 -18 -16.5t-18 -5.5q-21 0 -37.5 12.5t-16.5 34.5q0 12 8 25l389 585q11 17 29.5 26t36.5 9q39 0 63 -35l393 -585q7 -6 8.5 -13t1.5 -12q0 -21 -15.5 -33t-35.5 -12q-10 0 -21.5 5t-20.5 16zM660 851
q-12 -23 -27 -42.5t-36 -34.5t-49 -23.5t-65 -8.5q-38 0 -65.5 8.5t-48.5 23.5t-36 34.5t-27 42.5q-7 10 -7 24q0 17 11.5 28t25.5 11q9 0 18.5 -5.5t16.5 -17.5q23 -45 46.5 -63.5t65.5 -18.5t64.5 19t46.5 63q6 12 16 17.5t20 5.5q14 0 25 -11t11 -28q0 -12 -6 -24z" />
    <glyph glyph-name="abreve" unicode="&#x103;" horiz-adv-x="841" 
d="M52 0zM693 286h-434q-111 0 -111 -70v-71q0 -66 118 -66h313q114 0 114 100v107zM784 152q0 -152 -222 -152h-277q-233 0 -233 146v68q0 151 228 151h412q-9 77 -115 77h-115q-34 0 -34 40q0 38 34 38h100q222 0 222 -156v-212zM696 703q-12 -23 -27 -42.5t-36 -34.5
t-49 -23.5t-65 -8.5q-38 0 -65.5 8.5t-48.5 23.5t-36 34.5t-27 42.5q-7 10 -7 24q0 17 11.5 28t25.5 11q9 0 18.5 -5.5t16.5 -17.5q23 -45 46.5 -63.5t65.5 -18.5t64.5 19t46.5 63q6 12 16 17.5t20 5.5q14 0 25 -11t11 -28q0 -12 -6 -24z" />
    <glyph glyph-name="Aogonek" unicode="&#x104;" horiz-adv-x="966" 
d="M864 9l-121 176h-521l-113 -168q-8 -12 -19 -17t-19 -5q-20 0 -36 13.5t-16 33.5q0 12 8 25l389 585q11 17 29.5 26t36.5 9t34.5 -9t28.5 -26l393 -585q6 -7 8 -13.5t2 -11.5q0 -11 -5.5 -18.5t-12 -13t-13.5 -9t-10 -6.5l-36 -41q-8 -9 -10 -16t-2 -13q0 -20 32 -20h17
q40 0 40 -35t-40 -35h-30q-45 0 -68.5 11t-23.5 43q0 16 6.5 32.5t23.5 35.5zM276 267h411l-203 326z" />
    <glyph glyph-name="aogonek" unicode="&#x105;" horiz-adv-x="841" 
d="M653 7q-20 -3 -43 -5t-48 -2h-277q-233 0 -233 146v68q0 151 228 151h412q-9 77 -115 77h-115q-34 0 -34 40q0 38 34 38h100q222 0 222 -156v-212q0 -32 -10 -55.5t-30 -45.5l-82 -97q-8 -9 -9 -16.5t-1 -12.5q0 -20 31 -20h32q38 0 38 -35t-38 -35h-46q-45 0 -68.5 11
t-23.5 43q0 18 7 33t24 35zM693 286h-434q-111 0 -111 -70v-71q0 -66 118 -66h313q114 0 114 100v107z" />
    <glyph glyph-name="Cacute" unicode="&#x106;" horiz-adv-x="808" 
d="M59 0zM329 600q-170 0 -170 -80v-346q0 -93 187 -93h373q37 0 37 -39q0 -42 -37 -42h-387q-273 0 -273 170v350q0 159 267 159h393q37 0 37 -39q0 -40 -37 -40h-390zM406 727q-5 -7 -11.5 -9t-13.5 -2q-11 0 -21 10t-10 23q0 12 11 23l139 149q12 12 26 12
q12 0 21.5 -10.5t9.5 -22.5q0 -8 -2.5 -13t-7.5 -11z" />
    <glyph glyph-name="cacute" unicode="&#x107;" horiz-adv-x="739" 
d="M59 0zM315 0q-256 0 -256 153v214q0 153 233 153h348q44 0 44 -38q0 -40 -44 -40h-361q-126 0 -126 -72v-212q0 -79 145 -79h342q39 0 39 -42q0 -37 -39 -37h-325zM371 579q-5 -7 -11.5 -9t-13.5 -2q-11 0 -21 10t-10 23q0 12 11 23l139 149q12 12 26 12q12 0 21.5 -10.5
t9.5 -22.5q0 -8 -2.5 -13t-7.5 -11z" />
    <glyph glyph-name="Ccircumflex" unicode="&#x108;" horiz-adv-x="808" 
d="M59 0zM329 600q-170 0 -170 -80v-346q0 -93 187 -93h373q37 0 37 -39q0 -42 -37 -42h-387q-273 0 -273 170v350q0 159 267 159h393q37 0 37 -39q0 -40 -37 -40h-390zM622 767q11 -16 11 -25q0 -14 -12 -25.5t-23 -11.5q-13 0 -23 13v-1l-123 128l-122 -128
q-9 -12 -21 -12q-15 0 -26 11.5t-11 25.5q0 5 2 9.5l5 11.5l138 145q8 7 16 11t19 4q13 0 21 -4t14 -11z" />
    <glyph glyph-name="ccircumflex" unicode="&#x109;" horiz-adv-x="739" 
d="M59 0zM315 0q-256 0 -256 153v214q0 153 233 153h348q44 0 44 -38q0 -40 -44 -40h-361q-126 0 -126 -72v-212q0 -79 145 -79h342q39 0 39 -42q0 -37 -39 -37h-325zM587 619q11 -16 11 -25q0 -14 -12 -25.5t-23 -11.5q-13 0 -23 13v-1l-123 128l-122 -128q-9 -12 -21 -12
q-15 0 -26 11.5t-11 25.5q0 5 2 9.5l5 11.5l138 145q8 7 16 11t19 4q13 0 21 -4t14 -11z" />
    <glyph glyph-name="Cdotaccent" unicode="&#x10a;" horiz-adv-x="808" 
d="M59 0zM329 600q-170 0 -170 -80v-346q0 -93 187 -93h373q37 0 37 -39q0 -42 -37 -42h-387q-273 0 -273 170v350q0 159 267 159h393q37 0 37 -39q0 -40 -37 -40h-390zM518 826q0 -51 -65 -51t-65 51q0 49 65 49t65 -49z" />
    <glyph glyph-name="cdotaccent" unicode="&#x10b;" horiz-adv-x="739" 
d="M59 0zM315 0q-256 0 -256 153v214q0 153 233 153h348q44 0 44 -38q0 -40 -44 -40h-361q-126 0 -126 -72v-212q0 -79 145 -79h342q39 0 39 -42q0 -37 -39 -37h-325zM483 678q0 -51 -65 -51t-65 51q0 49 65 49t65 -49z" />
    <glyph glyph-name="Ccaron" unicode="&#x10c;" horiz-adv-x="808" 
d="M59 0zM329 600q-170 0 -170 -80v-346q0 -93 187 -93h373q37 0 37 -39q0 -42 -37 -42h-387q-273 0 -273 170v350q0 159 267 159h393q37 0 37 -39q0 -40 -37 -40h-390zM284 856q-12 12 -12 24q0 14 12 24.5t24 10.5q14 0 22 -11l123 -128l121 129q6 6 11.5 8t11.5 2
q14 0 25 -11t11 -25q0 -10 -8 -20l-138 -145q-15 -16 -33 -16q-12 0 -20.5 4t-16.5 12z" />
    <glyph glyph-name="ccaron" unicode="&#x10d;" horiz-adv-x="739" 
d="M59 0zM315 0q-256 0 -256 153v214q0 153 233 153h348q44 0 44 -38q0 -40 -44 -40h-361q-126 0 -126 -72v-212q0 -79 145 -79h342q39 0 39 -42q0 -37 -39 -37h-325zM249 708q-12 12 -12 24q0 14 12 24.5t24 10.5q14 0 22 -11l123 -128l121 129q6 6 11.5 8t11.5 2
q14 0 25 -11t11 -25q0 -10 -8 -20l-138 -145q-15 -16 -33 -16q-12 0 -20.5 4t-16.5 12z" />
    <glyph glyph-name="Dcaron" unicode="&#x10e;" horiz-adv-x="940" 
d="M68 0zM782 512q0 88 -163 88h-449v-519h446q166 0 166 97v334zM882 178q0 -178 -263 -178h-518q-33 0 -33 34v614q0 31 33 31h519q262 0 262 -167v-334zM253 856q-12 12 -12 24q0 14 12 24.5t24 10.5q14 0 22 -11l123 -128l121 129q6 6 11.5 8t11.5 2q14 0 25 -11t11 -25
q0 -10 -8 -20l-138 -145q-15 -16 -33 -16q-12 0 -20.5 4t-16.5 12z" />
    <glyph glyph-name="dcaron" unicode="&#x10f;" horiz-adv-x="899" 
d="M59 0zM667 441h-369q-145 0 -145 -92v-186q0 -84 139 -84h218q157 0 157 84v278zM760 152q0 -152 -265 -152h-177q-259 0 -259 143v218q0 159 259 159h349v123q0 42 45 42q48 0 48 -42v-491zM865 685q33 0 33 -29q0 -5 -0.5 -10.5t-1.5 -10.5l-29 -110q-5 -15 -17 -22
t-23 -7q-13 0 -21 8.5t-8 19.5l24 128q3 15 15.5 24t27.5 9z" />
    <glyph glyph-name="Dcroat" unicode="&#x110;" horiz-adv-x="940" 
d="M0 0zM40 306q-40 0 -40 36q0 37 40 37h28v269q0 31 33 31h519q262 0 262 -167v-334q0 -178 -263 -178h-518q-33 0 -33 34v272h-28zM782 512q0 88 -163 88h-449v-221h228q35 0 35 -35q0 -38 -35 -38h-228v-225h446q166 0 166 97v334z" />
    <glyph glyph-name="dcroat" unicode="&#x111;" horiz-adv-x="823" 
d="M760 560v-408q0 -152 -265 -152h-177q-259 0 -259 143v218q0 159 259 159h349v40h-248q-45 0 -45 40q0 42 45 42h248v1q0 42 45 42q48 0 48 -42v-1h17q46 0 46 -40q0 -42 -46 -42h-17zM667 441h-369q-145 0 -145 -92v-186q0 -84 139 -84h218q157 0 157 84v278z" />
    <glyph glyph-name="Emacron" unicode="&#x112;" horiz-adv-x="851" 
d="M59 0zM161 378h598q35 0 35 -41t-35 -41h-598v-128q0 -87 165 -87h433q38 0 38 -39q0 -42 -38 -42h-436q-264 0 -264 164v348q0 167 273 167h118q36 0 36 -40q0 -39 -36 -39h-79q-210 0 -210 -88v-134zM147 748q-44 0 -44 39q0 40 44 40h358q46 0 46 -38q0 -41 -46 -41
h-358z" />
    <glyph glyph-name="emacron" unicode="&#x113;" horiz-adv-x="802" 
d="M59 0zM153 295h508v77q0 70 -109 70h-254q-145 0 -145 -75v-72zM753 257q0 -43 -43 -43h-557v-65q0 -70 145 -70h104q40 0 40 -39q0 -40 -40 -40h-79q-264 0 -264 161v200q0 159 261 159h213q220 0 220 -139v-124zM221 600q-44 0 -44 39q0 40 44 40h358q46 0 46 -38
q0 -41 -46 -41h-358z" />
    <glyph glyph-name="Ebreve" unicode="&#x114;" horiz-adv-x="851" 
d="M59 0zM161 378h598q35 0 35 -41t-35 -41h-598v-128q0 -87 165 -87h433q38 0 38 -39q0 -42 -38 -42h-436q-264 0 -264 164v348q0 167 273 167h118q36 0 36 -40q0 -39 -36 -39h-79q-210 0 -210 -88v-134zM554 851q-12 -23 -27 -42.5t-36 -34.5t-49 -23.5t-65 -8.5
q-38 0 -65.5 8.5t-48.5 23.5t-36 34.5t-27 42.5q-7 10 -7 24q0 17 11.5 28t25.5 11q9 0 18.5 -5.5t16.5 -17.5q23 -45 46.5 -63.5t65.5 -18.5t64.5 19t46.5 63q6 12 16 17.5t20 5.5q14 0 25 -11t11 -28q0 -12 -6 -24z" />
    <glyph glyph-name="ebreve" unicode="&#x115;" horiz-adv-x="802" 
d="M59 0zM153 295h508v77q0 70 -109 70h-254q-145 0 -145 -75v-72zM753 257q0 -43 -43 -43h-557v-65q0 -70 145 -70h104q40 0 40 -39q0 -40 -40 -40h-79q-264 0 -264 161v200q0 159 261 159h213q220 0 220 -139v-124zM579 703q-12 -23 -27 -42.5t-36 -34.5t-49 -23.5
t-65 -8.5q-38 0 -65.5 8.5t-48.5 23.5t-36 34.5t-27 42.5q-7 10 -7 24q0 17 11.5 28t25.5 11q9 0 18.5 -5.5t16.5 -17.5q23 -45 46.5 -63.5t65.5 -18.5t64.5 19t46.5 63q6 12 16 17.5t20 5.5q14 0 25 -11t11 -28q0 -12 -6 -24z" />
    <glyph glyph-name="Edotaccent" unicode="&#x116;" horiz-adv-x="851" 
d="M59 0zM161 378h598q35 0 35 -41t-35 -41h-598v-128q0 -87 165 -87h433q38 0 38 -39q0 -42 -38 -42h-436q-264 0 -264 164v348q0 167 273 167h118q36 0 36 -40q0 -39 -36 -39h-79q-210 0 -210 -88v-134zM442 826q0 -51 -65 -51t-65 51q0 49 65 49t65 -49z" />
    <glyph glyph-name="edotaccent" unicode="&#x117;" horiz-adv-x="802" 
d="M59 0zM153 295h508v77q0 70 -109 70h-254q-145 0 -145 -75v-72zM753 257q0 -43 -43 -43h-557v-65q0 -70 145 -70h104q40 0 40 -39q0 -40 -40 -40h-79q-264 0 -264 161v200q0 159 261 159h213q220 0 220 -139v-124zM467 678q0 -51 -65 -51t-65 51q0 49 65 49t65 -49z" />
    <glyph glyph-name="Eogonek" unicode="&#x118;" horiz-adv-x="851" 
d="M721 0h-398q-264 0 -264 164v348q0 167 273 167h118q36 0 36 -40q0 -39 -36 -39h-79q-210 0 -210 -88v-134h598q35 0 35 -41t-35 -41h-598v-128q0 -87 165 -87h433q38 0 38 -39q0 -19 -8 -30l-51 -58q-8 -9 -10 -16t-2 -13q0 -20 32 -20h17q39 0 39 -35t-39 -35h-31
q-45 0 -68 11t-23 43q0 18 6.5 33t23.5 35z" />
    <glyph glyph-name="eogonek" unicode="&#x119;" horiz-adv-x="802" 
d="M463 0h-140q-264 0 -264 161v200q0 159 261 159h213q220 0 220 -139v-124q0 -43 -43 -43h-557v-65q0 -70 145 -70h201q40 0 40 -39q0 -19 -9 -28l-50 -58q-8 -8 -9.5 -16t-1.5 -13q0 -20 32 -20h16q39 0 39 -35t-39 -35h-30q-45 0 -69 11t-24 43q0 17 7 32.5t24 35.5z
M153 295h508v77q0 70 -109 70h-254q-145 0 -145 -75v-72z" />
    <glyph glyph-name="Ecaron" unicode="&#x11a;" horiz-adv-x="851" 
d="M59 0zM161 378h598q35 0 35 -41t-35 -41h-598v-128q0 -87 165 -87h433q38 0 38 -39q0 -42 -38 -42h-436q-264 0 -264 164v348q0 167 273 167h118q36 0 36 -40q0 -39 -36 -39h-79q-210 0 -210 -88v-134zM208 856q-12 12 -12 24q0 14 12 24.5t24 10.5q14 0 22 -11l123 -128
l121 129q6 6 11.5 8t11.5 2q14 0 25 -11t11 -25q0 -10 -8 -20l-138 -145q-15 -16 -33 -16q-12 0 -20.5 4t-16.5 12z" />
    <glyph glyph-name="ecaron" unicode="&#x11b;" horiz-adv-x="802" 
d="M59 0zM153 295h508v77q0 70 -109 70h-254q-145 0 -145 -75v-72zM753 257q0 -43 -43 -43h-557v-65q0 -70 145 -70h104q40 0 40 -39q0 -40 -40 -40h-79q-264 0 -264 161v200q0 159 261 159h213q220 0 220 -139v-124zM233 708q-12 12 -12 24q0 14 12 24.5t24 10.5
q14 0 22 -11l123 -128l121 129q6 6 11.5 8t11.5 2q14 0 25 -11t11 -25q0 -10 -8 -20l-138 -145q-15 -16 -33 -16q-12 0 -20.5 4t-16.5 12z" />
    <glyph glyph-name="Gcircumflex" unicode="&#x11c;" horiz-adv-x="928" 
d="M59 0zM863 166q0 -166 -253 -166h-276q-275 0 -275 165v353q0 161 278 161h108q36 0 36 -39q0 -40 -36 -40h-78q-206 0 -206 -82v-353q0 -84 176 -84h273q150 0 150 82v182q0 41 52 41q51 0 51 -41v-179zM535 767q11 -16 11 -25q0 -14 -12 -25.5t-23 -11.5q-13 0 -23 13
v-1l-123 128l-122 -128q-9 -12 -21 -12q-15 0 -26 11.5t-11 25.5q0 5 2 9.5l5 11.5l138 145q8 7 16 11t19 4q13 0 21 -4t14 -11z" />
    <glyph glyph-name="gcircumflex" unicode="&#x11d;" horiz-adv-x="815" 
d="M59 0zM656 79v277q0 86 -150 86h-213q-140 0 -140 -78v-206q0 -79 162 -79h341zM753 7q0 -155 -258 -155h-79q-41 0 -41 38q0 39 41 39h91q152 0 152 65v6h-325q-275 0 -275 157v205q0 158 251 158h169q274 0 274 -159v-354zM578 619q11 -16 11 -25q0 -14 -12 -25.5
t-23 -11.5q-13 0 -23 13v-1l-123 128l-122 -128q-9 -12 -21 -12q-15 0 -26 11.5t-11 25.5q0 5 2 9.5l5 11.5l138 145q8 7 16 11t19 4q13 0 21 -4t14 -11z" />
    <glyph glyph-name="Gbreve" unicode="&#x11e;" horiz-adv-x="928" 
d="M59 0zM863 166q0 -166 -253 -166h-276q-275 0 -275 165v353q0 161 278 161h108q36 0 36 -39q0 -40 -36 -40h-78q-206 0 -206 -82v-353q0 -84 176 -84h273q150 0 150 82v182q0 41 52 41q51 0 51 -41v-179zM543 851q-12 -23 -27 -42.5t-36 -34.5t-49 -23.5t-65 -8.5
q-38 0 -65.5 8.5t-48.5 23.5t-36 34.5t-27 42.5q-7 10 -7 24q0 17 11.5 28t25.5 11q9 0 18.5 -5.5t16.5 -17.5q23 -45 46.5 -63.5t65.5 -18.5t64.5 19t46.5 63q6 12 16 17.5t20 5.5q14 0 25 -11t11 -28q0 -12 -6 -24z" />
    <glyph glyph-name="gbreve" unicode="&#x11f;" horiz-adv-x="815" 
d="M59 0zM656 79v277q0 86 -150 86h-213q-140 0 -140 -78v-206q0 -79 162 -79h341zM753 7q0 -155 -258 -155h-79q-41 0 -41 38q0 39 41 39h91q152 0 152 65v6h-325q-275 0 -275 157v205q0 158 251 158h169q274 0 274 -159v-354zM586 703q-12 -23 -27 -42.5t-36 -34.5
t-49 -23.5t-65 -8.5q-38 0 -65.5 8.5t-48.5 23.5t-36 34.5t-27 42.5q-7 10 -7 24q0 17 11.5 28t25.5 11q9 0 18.5 -5.5t16.5 -17.5q23 -45 46.5 -63.5t65.5 -18.5t64.5 19t46.5 63q6 12 16 17.5t20 5.5q14 0 25 -11t11 -28q0 -12 -6 -24z" />
    <glyph glyph-name="Gdotaccent" unicode="&#x120;" horiz-adv-x="928" 
d="M59 0zM863 166q0 -166 -253 -166h-276q-275 0 -275 165v353q0 161 278 161h108q36 0 36 -39q0 -40 -36 -40h-78q-206 0 -206 -82v-353q0 -84 176 -84h273q150 0 150 82v182q0 41 52 41q51 0 51 -41v-179zM431 826q0 -51 -65 -51t-65 51q0 49 65 49t65 -49z" />
    <glyph glyph-name="gdotaccent" unicode="&#x121;" horiz-adv-x="815" 
d="M59 0zM656 79v277q0 86 -150 86h-213q-140 0 -140 -78v-206q0 -79 162 -79h341zM753 7q0 -155 -258 -155h-79q-41 0 -41 38q0 39 41 39h91q152 0 152 65v6h-325q-275 0 -275 157v205q0 158 251 158h169q274 0 274 -159v-354zM473 678q0 -51 -65 -51t-65 51q0 49 65 49
t65 -49z" />
    <glyph glyph-name="Gcommaaccent" unicode="&#x122;" horiz-adv-x="928" 
d="M59 0zM863 166q0 -166 -253 -166h-276q-275 0 -275 165v353q0 161 278 161h108q36 0 36 -39q0 -40 -36 -40h-78q-206 0 -206 -82v-353q0 -84 176 -84h273q150 0 150 82v182q0 41 52 41q51 0 51 -41v-179zM481 -15q33 0 33 -29q0 -5 -0.5 -10.5t-1.5 -10.5l-29 -110
q-5 -15 -17 -22t-23 -7q-13 0 -21 8.5t-8 19.5l24 128q3 15 15.5 24t27.5 9z" />
    <glyph glyph-name="gcommaaccent" unicode="&#x123;" horiz-adv-x="815" 
d="M59 0zM656 79v277q0 86 -150 86h-213q-140 0 -140 -78v-206q0 -79 162 -79h341zM753 7q0 -155 -258 -155h-79q-41 0 -41 38q0 39 41 39h91q152 0 152 65v6h-325q-275 0 -275 157v205q0 158 251 158h169q274 0 274 -159v-354zM418.01 548.999q-32.998 0 -32.998 28.998
q0 5 0.5 10.5q0.5 5.49902 1.5 10.499l28.998 109.993q5 14.999 16.999 21.999q11.999 6.99902 22.999 6.99902q12.999 0 20.998 -8.49902q8 -8.5 8 -19.499l-23.999 -127.992q-3 -14.999 -15.499 -23.999q-12.499 -8.99902 -27.498 -8.99902z" />
    <glyph glyph-name="Hcircumflex" unicode="&#x124;" horiz-adv-x="950" 
d="M68 0zM882 38q0 -43 -51 -43q-49 0 -49 43v258h-612v-258q0 -43 -52 -43q-50 0 -50 43v605q0 42 52 42q50 0 50 -42v-265h612v265q0 42 48 42q52 0 52 -42v-605zM644 767q11 -16 11 -25q0 -14 -12 -25.5t-23 -11.5q-13 0 -23 13v-1l-123 128l-122 -128q-9 -12 -21 -12
q-15 0 -26 11.5t-11 25.5q0 5 2 9.5l5 11.5l138 145q8 7 16 11t19 4q13 0 21 -4t14 -11z" />
    <glyph glyph-name="hcircumflex" unicode="&#x125;" horiz-adv-x="825" 
d="M66 0zM763 37q0 -42 -48 -42t-48 42v317q0 88 -159 88h-345v-405q0 -42 -48 -42q-47 0 -47 42v606q0 42 47 42q48 0 48 -42v-123h315q285 0 285 -164v-319zM416 767q11 -16 11 -25q0 -14 -12 -25.5t-23 -11.5q-13 0 -23 13v-1l-123 128l-122 -128q-9 -12 -21 -12
q-15 0 -26 11.5t-11 25.5q0 5 2 9.5l5 11.5l138 145q8 7 16 11t19 4q13 0 21 -4t14 -11z" />
    <glyph glyph-name="Hbar" unicode="&#x126;" horiz-adv-x="950" 
d="M882 38q0 -43 -51 -43q-49 0 -49 43v258h-612v-258q0 -43 -52 -43q-50 0 -50 43v605q0 42 52 42q50 0 50 -42v-71h612v71q0 42 48 42q52 0 52 -42v-605zM782 378v114h-612v-114h612z" />
    <glyph glyph-name="hbar" unicode="&#x127;" horiz-adv-x="825" 
d="M163 560v-40h315q285 0 285 -164v-319q0 -42 -48 -42t-48 42v317q0 88 -159 88h-345v-405q0 -42 -48 -42q-47 0 -47 42v523h-24q-44 0 -44 40q0 42 44 42h24v1q0 42 47 42q48 0 48 -42v-1h240q45 0 45 -40q0 -42 -45 -42h-240z" />
    <glyph glyph-name="Itilde" unicode="&#x128;" horiz-adv-x="258" 
d="M0 0zM180 38q0 -42 -51 -42t-51 42v605q0 42 53 42q49 0 49 -42v-605zM-53 751q-41 0 -41 36q0 39 41 39h365q42 0 42 -37q0 -38 -42 -38h-365z" />
    <glyph glyph-name="itilde" unicode="&#x129;" horiz-adv-x="228" 
d="M0 0zM161 37q0 -42 -47 -42q-46 0 -46 42v440q0 41 45 41q48 0 48 -41v-440zM-68 603q-41 0 -41 36q0 39 41 39h365q42 0 42 -37q0 -38 -42 -38h-365z" />
    <glyph glyph-name="uni012A" unicode="&#x12a;" horiz-adv-x="258" 
d="M0 0zM180 38q0 -42 -51 -42t-51 42v605q0 42 53 42q49 0 49 -42v-605zM-50 748q-44 0 -44 39q0 40 44 40h358q46 0 46 -38q0 -41 -46 -41h-358z" />
    <glyph glyph-name="imacron" unicode="&#x12b;" horiz-adv-x="228" 
d="M0 0zM161 37q0 -42 -47 -42q-46 0 -46 42v440q0 41 45 41q48 0 48 -41v-440zM-65 600q-44 0 -44 39q0 40 44 40h358q46 0 46 -38q0 -41 -46 -41h-358z" />
    <glyph glyph-name="Ibreve" unicode="&#x12c;" horiz-adv-x="258" 
d="M0 0zM180 38q0 -42 -51 -42t-51 42v605q0 42 53 42q49 0 49 -42v-605zM307 851q-12 -23 -27 -42.5t-36 -34.5t-49 -23.5t-65 -8.5q-38 0 -65.5 8.5t-48.5 23.5t-36 34.5t-27 42.5q-7 10 -7 24q0 17 11.5 28t25.5 11q9 0 18.5 -5.5t16.5 -17.5q23 -45 46.5 -63.5
t65.5 -18.5t64.5 19t46.5 63q6 12 16 17.5t20 5.5q14 0 25 -11t11 -28q0 -12 -6 -24z" />
    <glyph glyph-name="uni012D" unicode="&#x12d;" horiz-adv-x="228" 
d="M0 0zM161 37q0 -42 -47 -42q-46 0 -46 42v440q0 41 45 41q48 0 48 -41v-440zM293 703q-12 -23 -27 -42.5t-36 -34.5t-49 -23.5t-65 -8.5q-38 0 -65.5 8.5t-48.5 23.5t-36 34.5t-27 42.5q-7 10 -7 24q0 17 11.5 28t25.5 11q9 0 18.5 -5.5t16.5 -17.5q23 -45 46.5 -63.5
t65.5 -18.5t64.5 19t46.5 63q6 12 16 17.5t20 5.5q14 0 25 -11t11 -28q0 -12 -6 -24z" />
    <glyph glyph-name="Iogonek" unicode="&#x12e;" horiz-adv-x="258" 
d="M101 0q-23 9 -23 38v605q0 42 53 42q49 0 49 -42v-605q0 -9 -7.5 -20.5t-18.5 -23.5l-38 -40q-8 -8 -10 -15.5t-2 -13.5q0 -20 33 -20h16q40 0 40 -35t-40 -35h-29q-45 0 -69 11t-24 43q0 17 7.5 32.5t24.5 35.5z" />
    <glyph glyph-name="iogonek" unicode="&#x12f;" horiz-adv-x="237" 
d="M92 0q-19 9 -19 37v412q0 41 43 41q49 0 49 -41v-412q0 -14 -6.5 -22.5l-15.5 -19.5l-36 -41q-8 -9 -10 -16t-2 -13q0 -20 33 -20h16q39 0 39 -35t-39 -35h-30q-45 0 -69 11t-24 43q0 33 32 68zM181 594q0 -49 -66 -49q-62 0 -62 49q0 50 62 50q66 0 66 -50z" />
    <glyph glyph-name="Idotaccent" unicode="&#x130;" horiz-adv-x="258" 
d="M64 0zM180 38q0 -42 -51 -42t-51 42v605q0 42 53 42q49 0 49 -42v-605zM194 826q0 -51 -65 -51t-65 51q0 49 65 49t65 -49z" />
    <glyph glyph-name="dotlessi" unicode="&#x131;" horiz-adv-x="228" 
d="M161 37q0 -42 -47 -42q-46 0 -46 42v440q0 41 45 41q48 0 48 -41v-440z" />
    <glyph glyph-name="IJ" unicode="&#x132;" horiz-adv-x="678" 
d="M78 0zM180 38q0 -42 -51 -42t-51 42v605q0 42 53 42q49 0 49 -42v-605zM615 195q0 -195 -258 -195h-57q-42 0 -42 42q0 39 42 39h57q156 0 156 108v454q0 42 51 42t51 -42v-448z" />
    <glyph glyph-name="ij" unicode="&#x133;" horiz-adv-x="508" 
d="M53 0zM181 594q0 -49 -66 -49q-62 0 -62 49q0 50 62 50q66 0 66 -50zM165 37q0 -42 -47 -42q-45 0 -45 42v412q0 41 43 41q49 0 49 -41v-412zM455 597q0 -51 -64 -51q-63 0 -63 51q0 49 63 49q64 0 64 -49zM439 40q0 -153 -211 -153h-74q-41 0 -41 37q0 41 41 41h80
q111 0 111 66v418q0 41 46 41q48 0 48 -41v-409z" />
    <glyph glyph-name="Jcircumflex" unicode="&#x134;" horiz-adv-x="421" 
d="M0 0zM357 195q0 -195 -258 -195h-57q-42 0 -42 42q0 39 42 39h57q156 0 156 108v454q0 42 51 42t51 -42v-448zM380 767q11 -16 11 -25q0 -14 -12 -25.5t-23 -11.5q-13 0 -23 13v-1l-123 128l-122 -128q-9 -12 -21 -12q-15 0 -26 11.5t-11 25.5q0 5 2 9.5l5 11.5l138 145
q8 7 16 11t19 4q13 0 21 -4t14 -11z" />
    <glyph glyph-name="jcircumflex" unicode="&#x135;" horiz-adv-x="271" 
d="M202 40q0 -153 -211 -153h-74q-41 0 -41 37q0 41 41 41h80q111 0 111 66v418q0 41 46 41q48 0 48 -41v-409zM320 619q11 -16 11 -25q0 -14 -12 -25.5t-23 -11.5q-13 0 -23 13v-1l-123 128l-122 -128q-9 -12 -21 -12q-15 0 -26 11.5t-11 25.5q0 5 2 9.5l5 11.5l138 145
q8 7 16 11t19 4q13 0 21 -4t14 -11z" />
    <glyph glyph-name="Kcommaaccent" unicode="&#x136;" horiz-adv-x="815" 
d="M80 0zM258 347l503 -268q12 -7 18.5 -17.5t6.5 -19.5q0 -18 -12.5 -32t-31.5 -14q-11 0 -25 8l-538 293v-259q0 -43 -49 -43q-50 0 -50 43v605q0 42 51 42q48 0 48 -42v-251l513 285q15 8 27 8q20 0 34 -14t14 -31q0 -9 -5 -18t-18 -16zM379 -15q33 0 33 -29
q0 -5 -0.5 -10.5t-1.5 -10.5l-29 -110q-5 -15 -17 -22t-23 -7q-13 0 -21 8.5t-8 19.5l24 128q3 15 15.5 24t27.5 9z" />
    <glyph glyph-name="kcommaaccent" unicode="&#x137;" horiz-adv-x="674" 
d="M68 0zM232 268l390 -196q10 -5 15.5 -14t5.5 -16q0 -18 -14 -32.5t-33 -14.5q-9 0 -22 6l-412 213v-177q0 -42 -46 -42q-48 0 -48 42v606q0 42 48 42q46 0 46 -42v-323l419 201q12 5 18 5q17 0 30.5 -13.5t13.5 -28.5q0 -22 -23 -32zM312 -15q33 0 33 -29
q0 -5 -0.5 -10.5t-1.5 -10.5l-29 -110q-5 -15 -17 -22t-23 -7q-13 0 -21 8.5t-8 19.5l24 128q3 15 15.5 24t27.5 9z" />
    <glyph glyph-name="Lacute" unicode="&#x139;" 
d="M10 0zM378 0q-314 0 -314 175v468q0 42 50 42q51 0 51 -42v-468q0 -94 209 -94h396q38 0 38 -43q0 -38 -38 -38h-392zM66 727q-5 -7 -11.5 -9t-13.5 -2q-11 0 -21 10t-10 23q0 12 11 23l139 149q12 12 26 12q12 0 21.5 -10.5t9.5 -22.5q0 -8 -2.5 -13t-7.5 -11z" />
    <glyph glyph-name="lacute" unicode="&#x13a;" horiz-adv-x="230" 
d="M10 0zM163 37q0 -42 -47 -42q-48 0 -48 42v606q0 42 47 42q48 0 48 -42v-606zM66 727q-5 -7 -11.5 -9t-13.5 -2q-11 0 -21 10t-10 23q0 12 11 23l139 149q12 12 26 12q12 0 21.5 -10.5t9.5 -22.5q0 -8 -2.5 -13t-7.5 -11z" />
    <glyph glyph-name="Lcommaaccent" unicode="&#x13b;" 
d="M64 0zM378 0q-314 0 -314 175v468q0 42 50 42q51 0 51 -42v-468q0 -94 209 -94h396q38 0 38 -43q0 -38 -38 -38h-392zM427 -15q33 0 33 -29q0 -5 -0.5 -10.5t-1.5 -10.5l-29 -110q-5 -15 -17 -22t-23 -7q-13 0 -21 8.5t-8 19.5l24 128q3 15 15.5 24t27.5 9z" />
    <glyph glyph-name="lcommaaccent" unicode="&#x13c;" horiz-adv-x="230" 
d="M49 0zM163 37q0 -42 -47 -42q-48 0 -48 42v606q0 42 47 42q48 0 48 -42v-606zM116 -15q33 0 33 -29q0 -5 -0.5 -10.5t-1.5 -10.5l-29 -110q-5 -15 -17 -22t-23 -7q-13 0 -21 8.5t-8 19.5l24 128q3 15 15.5 24t27.5 9z" />
    <glyph glyph-name="Lcaron" unicode="&#x13d;" 
d="M64 0zM378 0q-314 0 -314 175v468q0 42 50 42q51 0 51 -42v-468q0 -94 209 -94h396q38 0 38 -43q0 -38 -38 -38h-392zM349 685q33 0 33 -29q0 -5 -0.5 -10.5t-1.5 -10.5l-29 -110q-5 -15 -17 -22t-23 -7q-13 0 -21 8.5t-8 19.5l24 128q3 15 15.5 24t27.5 9z" />
    <glyph glyph-name="lcaron" unicode="&#x13e;" horiz-adv-x="300" 
d="M68 0zM163 37q0 -42 -47 -42q-48 0 -48 42v606q0 42 47 42q48 0 48 -42v-606zM268 685q33 0 33 -29q0 -5 -0.5 -10.5t-1.5 -10.5l-29 -110q-5 -15 -17 -22t-23 -7q-13 0 -21 8.5t-8 19.5l24 128q3 15 15.5 24t27.5 9z" />
    <glyph glyph-name="Ldot" unicode="&#x13f;" 
d="M64 0zM378 0q-314 0 -314 175v468q0 42 50 42q51 0 51 -42v-468q0 -94 209 -94h396q38 0 38 -43q0 -38 -38 -38h-392zM366 366q0 -51 -65 -51t-65 51t65 51t65 -51z" />
    <glyph glyph-name="ldot" unicode="&#x140;" horiz-adv-x="332" 
d="M68 0zM163 37q0 -42 -47 -42q-48 0 -48 42v606q0 42 47 42q48 0 48 -42v-606zM332 358q0 -51 -65 -51t-65 51t65 51t65 -51z" />
    <glyph glyph-name="Lslash" unicode="&#x141;" 
d="M378 0q-314 0 -314 175v468q0 42 50 42q51 0 51 -42v-253l226 135q11 8 23 8q21 0 35.5 -16t14.5 -36q0 -25 -22 -37l-277 -163v-106q0 -94 209 -94h396q38 0 38 -43q0 -38 -38 -38h-392z" />
    <glyph glyph-name="lslash" unicode="&#x142;" horiz-adv-x="326" 
d="M209 37q0 -42 -47 -42q-48 0 -48 42v273l-45 -26q-10 -7 -23 -7q-20 0 -33 14.5t-13 32.5q0 9 5 19t18 18l91 54v228q0 42 47 42q48 0 48 -42v-169l43 29q7 4 12.5 5t11.5 1q21 0 35.5 -15.5t14.5 -35.5q0 -27 -22 -37l-95 -56v-328z" />
    <glyph glyph-name="Nacute" unicode="&#x143;" horiz-adv-x="946" 
d="M68 0zM876 63q0 -35 -18 -51.5t-43 -16.5q-11 0 -23.5 4.5t-23.5 15.5l-601 537v-514q0 -43 -50 -43q-49 0 -49 43v583q0 32 19.5 46.5t42.5 14.5q14 0 27.5 -4.5t24.5 -15.5l595 -526v507q0 42 52 42q47 0 47 -42v-580zM426 727q-5 -7 -11.5 -9t-13.5 -2q-11 0 -21 10
t-10 23q0 12 11 23l139 149q12 12 26 12q12 0 21.5 -10.5t9.5 -22.5q0 -8 -2.5 -13t-7.5 -11z" />
    <glyph glyph-name="nacute" unicode="&#x144;" horiz-adv-x="813" 
d="M64 0zM750 37q0 -42 -48 -42t-48 42v341q0 64 -129 64h-237q-130 0 -130 -64v-341q0 -42 -47 -42t-47 42v341q0 142 250 142h183q253 0 253 -142v-341zM359 579q-5 -7 -11.5 -9t-13.5 -2q-11 0 -21 10t-10 23q0 12 11 23l139 149q12 12 26 12q12 0 21.5 -10.5t9.5 -22.5
q0 -8 -2.5 -13t-7.5 -11z" />
    <glyph glyph-name="Ncommaaccent" unicode="&#x145;" horiz-adv-x="946" 
d="M68 0zM876 63q0 -35 -18 -51.5t-43 -16.5q-11 0 -23.5 4.5t-23.5 15.5l-601 537v-514q0 -43 -50 -43q-49 0 -49 43v583q0 32 19.5 46.5t42.5 14.5q14 0 27.5 -4.5t24.5 -15.5l595 -526v507q0 42 52 42q47 0 47 -42v-580zM423 -15q33 0 33 -29q0 -5 -0.5 -10.5t-1.5 -10.5
l-29 -110q-5 -15 -17 -22t-23 -7q-13 0 -21 8.5t-8 19.5l24 128q3 15 15.5 24t27.5 9z" />
    <glyph glyph-name="ncommaaccent" unicode="&#x146;" horiz-adv-x="813" 
d="M64 0zM750 37q0 -42 -48 -42t-48 42v341q0 64 -129 64h-237q-130 0 -130 -64v-341q0 -42 -47 -42t-47 42v341q0 142 250 142h183q253 0 253 -142v-341zM423 -15q33 0 33 -29q0 -5 -0.5 -10.5t-1.5 -10.5l-29 -110q-5 -15 -17 -22t-23 -7q-13 0 -21 8.5t-8 19.5l24 128
q3 15 15.5 24t27.5 9z" />
    <glyph glyph-name="Ncaron" unicode="&#x147;" horiz-adv-x="946" 
d="M68 0zM876 63q0 -35 -18 -51.5t-43 -16.5q-11 0 -23.5 4.5t-23.5 15.5l-601 537v-514q0 -43 -50 -43q-49 0 -49 43v583q0 32 19.5 46.5t42.5 14.5q14 0 27.5 -4.5t24.5 -15.5l595 -526v507q0 42 52 42q47 0 47 -42v-580zM303 856q-12 12 -12 24q0 14 12 24.5t24 10.5
q14 0 22 -11l123 -128l121 129q6 6 11.5 8t11.5 2q14 0 25 -11t11 -25q0 -10 -8 -20l-138 -145q-15 -16 -33 -16q-12 0 -20.5 4t-16.5 12z" />
    <glyph glyph-name="ncaron" unicode="&#x148;" horiz-adv-x="813" 
d="M64 0zM750 37q0 -42 -48 -42t-48 42v341q0 64 -129 64h-237q-130 0 -130 -64v-341q0 -42 -47 -42t-47 42v341q0 142 250 142h183q253 0 253 -142v-341zM238 708q-12 12 -12 24q0 14 12 24.5t24 10.5q14 0 22 -11l123 -128l121 129q6 6 11.5 8t11.5 2q14 0 25 -11t11 -25
q0 -10 -8 -20l-138 -145q-15 -16 -33 -16q-12 0 -20.5 4t-16.5 12z" />
    <glyph glyph-name="Eng" unicode="&#x14a;" horiz-adv-x="946" 
d="M876 6q0 -153 -210 -153h-75q-40 0 -40 37q0 41 40 41h80q57 0 81.5 16t24.5 49v10l-610 546v-514q0 -43 -50 -43q-49 0 -49 43v583q0 32 19.5 46.5t42.5 14.5q14 0 27.5 -4.5t24.5 -15.5l595 -526v507q0 42 52 42q47 0 47 -42v-637z" />
    <glyph glyph-name="eng" unicode="&#x14b;" horiz-adv-x="813" 
d="M750 -1q0 -73 -53.5 -109.5t-158.5 -36.5h-75q-40 0 -40 37q0 41 40 41h81q110 0 110 65v382q0 64 -129 64h-237q-130 0 -130 -64v-341q0 -42 -47 -42t-47 42v341q0 142 250 142h183q253 0 253 -142v-379z" />
    <glyph glyph-name="Omacron" unicode="&#x14c;" horiz-adv-x="905" 
d="M59 0zM746 497q0 103 -166 103h-243q-176 0 -176 -103v-318q0 -98 176 -98h237q172 0 172 98v318zM847 178q0 -178 -301 -178h-188q-299 0 -299 177v326q0 176 299 176h188q301 0 301 -176v-325zM273 748q-44 0 -44 39q0 40 44 40h358q46 0 46 -38q0 -41 -46 -41h-358z
" />
    <glyph glyph-name="omacron" unicode="&#x14d;" horiz-adv-x="803" 
d="M59 0zM648 367q0 75 -134 75h-216q-145 0 -145 -83v-201q0 -79 145 -79h216q134 0 134 79v209zM744 158q0 -158 -245 -158h-190q-250 0 -250 158v201q0 161 253 161h187q245 0 245 -160v-202zM222 600q-44 0 -44 39q0 40 44 40h358q46 0 46 -38q0 -41 -46 -41h-358z" />
    <glyph glyph-name="Obreve" unicode="&#x14e;" horiz-adv-x="905" 
d="M59 0zM746 497q0 103 -166 103h-243q-176 0 -176 -103v-318q0 -98 176 -98h237q172 0 172 98v318zM847 178q0 -178 -301 -178h-188q-299 0 -299 177v326q0 176 299 176h188q301 0 301 -176v-325zM630 851q-12 -23 -27 -42.5t-36 -34.5t-49 -23.5t-65 -8.5
q-38 0 -65.5 8.5t-48.5 23.5t-36 34.5t-27 42.5q-7 10 -7 24q0 17 11.5 28t25.5 11q9 0 18.5 -5.5t16.5 -17.5q23 -45 46.5 -63.5t65.5 -18.5t64.5 19t46.5 63q6 12 16 17.5t20 5.5q14 0 25 -11t11 -28q0 -12 -6 -24z" />
    <glyph glyph-name="obreve" unicode="&#x14f;" horiz-adv-x="803" 
d="M59 0zM648 367q0 75 -134 75h-216q-145 0 -145 -83v-201q0 -79 145 -79h216q134 0 134 79v209zM744 158q0 -158 -245 -158h-190q-250 0 -250 158v201q0 161 253 161h187q245 0 245 -160v-202zM579 703q-12 -23 -27 -42.5t-36 -34.5t-49 -23.5t-65 -8.5q-38 0 -65.5 8.5
t-48.5 23.5t-36 34.5t-27 42.5q-7 10 -7 24q0 17 11.5 28t25.5 11q9 0 18.5 -5.5t16.5 -17.5q23 -45 46.5 -63.5t65.5 -18.5t64.5 19t46.5 63q6 12 16 17.5t20 5.5q14 0 25 -11t11 -28q0 -12 -6 -24z" />
    <glyph glyph-name="Ohungarumlaut" unicode="&#x150;" horiz-adv-x="905" 
d="M59 0zM746 497q0 103 -166 103h-243q-176 0 -176 -103v-318q0 -98 176 -98h237q172 0 172 98v318zM847 178q0 -178 -301 -178h-188q-299 0 -299 177v326q0 176 299 176h188q301 0 301 -176v-325zM319 724q-11 -12 -24 -12q-31 0 -31 32q0 14 9 23l144 154q12 12 27 12
q32 0 32 -32q0 -12 -10 -25zM483 723q-9 -11 -22 -11q-33 0 -33 32q0 15 11 23l143 154q10 12 28 12q30 0 30 -32q0 -12 -10 -25z" />
    <glyph glyph-name="ohungarumlaut" unicode="&#x151;" horiz-adv-x="803" 
d="M59 0zM648 367q0 75 -134 75h-216q-145 0 -145 -83v-201q0 -79 145 -79h216q134 0 134 79v209zM744 158q0 -158 -245 -158h-190q-250 0 -250 158v201q0 161 253 161h187q245 0 245 -160v-202zM269 576q-11 -12 -24 -12q-31 0 -31 32q0 14 9 23l144 154q12 12 27 12
q32 0 32 -32q0 -12 -10 -25zM433 575q-9 -11 -22 -11q-33 0 -33 32q0 15 11 23l143 154q10 12 28 12q30 0 30 -32q0 -12 -10 -25z" />
    <glyph glyph-name="OE" unicode="&#x152;" horiz-adv-x="1537" 
d="M847 378h598q35 0 35 -41t-35 -41h-598v-128q0 -87 165 -87h433q37 0 37 -39q0 -42 -37 -42h-436q-158 0 -219 56q-74 -56 -244 -56h-188q-299 0 -299 177v326q0 176 299 176h188q171 0 245 -57q35 29 89 43t138 14h118q36 0 36 -40q0 -39 -36 -39h-78q-211 0 -211 -97
v-125zM337 600q-176 0 -176 -103v-318q0 -98 176 -98h237q170 0 170 87v335q0 97 -164 97h-243z" />
    <glyph glyph-name="oe" unicode="&#x153;" horiz-adv-x="1395" 
d="M1345 257q0 -43 -41 -43h-558v-65q0 -70 144 -70h105q40 0 40 -39q0 -40 -40 -40h-80q-150 0 -215 52q-61 -52 -201 -52h-190q-250 0 -250 158v201q0 161 253 161h187q142 0 200 -52q61 52 214 52h213q219 0 219 -139v-124zM648 367q0 75 -134 75h-216q-145 0 -145 -83
v-201q0 -79 145 -79h216q134 0 134 79v209zM746 295h508v77q0 70 -109 70h-255q-144 0 -144 -75v-72z" />
    <glyph glyph-name="Racute" unicode="&#x154;" horiz-adv-x="922" 
d="M68 0zM774 511q0 89 -167 89h-437v-250h455q149 0 149 73v88zM874 432q0 -163 -258 -163h-249l430 -188q26 -14 26 -36q0 -19 -12 -34.5t-32 -15.5q-10 0 -20 6l-589 275v-238q0 -43 -50 -43q-52 0 -52 43v610q0 31 33 31h491q282 0 282 -173v-74zM414 727
q-5 -7 -11.5 -9t-13.5 -2q-11 0 -21 10t-10 23q0 12 11 23l139 149q12 12 26 12q12 0 21.5 -10.5t9.5 -22.5q0 -8 -2.5 -13t-7.5 -11z" />
    <glyph glyph-name="racute" unicode="&#x155;" horiz-adv-x="404" 
d="M64 0zM294 442q-135 0 -135 -80v-325q0 -42 -48 -42q-47 0 -47 42v325q0 158 240 158h43q35 0 35 -39t-29 -39h-59zM154 579q-5 -7 -11.5 -9t-13.5 -2q-11 0 -21 10t-10 23q0 12 11 23l139 149q12 12 26 12q12 0 21.5 -10.5t9.5 -22.5q0 -8 -2.5 -13t-7.5 -11z" />
    <glyph glyph-name="Rcommaaccent" unicode="&#x156;" horiz-adv-x="922" 
d="M68 0zM774 511q0 89 -167 89h-437v-250h455q149 0 149 73v88zM874 432q0 -163 -258 -163h-249l430 -188q26 -14 26 -36q0 -19 -12 -34.5t-32 -15.5q-10 0 -20 6l-589 275v-238q0 -43 -50 -43q-52 0 -52 43v610q0 31 33 31h491q282 0 282 -173v-74zM407 -15q33 0 33 -29
q0 -5 -0.5 -10.5t-1.5 -10.5l-29 -110q-5 -15 -17 -22t-23 -7q-13 0 -21 8.5t-8 19.5l24 128q3 15 15.5 24t27.5 9z" />
    <glyph glyph-name="rcommaaccent" unicode="&#x157;" horiz-adv-x="404" 
d="M41 0zM294 442q-135 0 -135 -80v-325q0 -42 -48 -42q-47 0 -47 42v325q0 158 240 158h43q35 0 35 -39t-29 -39h-59zM108 -15q33 0 33 -29q0 -5 -0.5 -10.5t-1.5 -10.5l-29 -110q-5 -15 -17 -22t-23 -7q-13 0 -21 8.5t-8 19.5l24 128q3 15 15.5 24t27.5 9z" />
    <glyph glyph-name="Rcaron" unicode="&#x158;" horiz-adv-x="922" 
d="M68 0zM774 511q0 89 -167 89h-437v-250h455q149 0 149 73v88zM874 432q0 -163 -258 -163h-249l430 -188q26 -14 26 -36q0 -19 -12 -34.5t-32 -15.5q-10 0 -20 6l-589 275v-238q0 -43 -50 -43q-52 0 -52 43v610q0 31 33 31h491q282 0 282 -173v-74zM291 856q-12 12 -12 24
q0 14 12 24.5t24 10.5q14 0 22 -11l123 -128l121 129q6 6 11.5 8t11.5 2q14 0 25 -11t11 -25q0 -10 -8 -20l-138 -145q-15 -16 -33 -16q-12 0 -20.5 4t-16.5 12z" />
    <glyph glyph-name="rcaron" unicode="&#x159;" horiz-adv-x="404" 
d="M21 0zM294 442q-135 0 -135 -80v-325q0 -42 -48 -42q-47 0 -47 42v325q0 158 240 158h43q35 0 35 -39t-29 -39h-59zM33 708q-12 12 -12 24q0 14 12 24.5t24 10.5q14 0 22 -11l123 -128l121 129q6 6 11.5 8t11.5 2q14 0 25 -11t11 -25q0 -10 -8 -20l-138 -145
q-15 -16 -33 -16q-12 0 -20.5 4t-16.5 12z" />
    <glyph glyph-name="Sacute" unicode="&#x15a;" horiz-adv-x="853" 
d="M45 0zM789 157q0 -157 -255 -157h-452q-37 0 -37 43q0 38 37 38h465q140 0 140 81v58q0 89 -166 89h-206q-265 0 -265 143v68q0 159 232 159h113q38 0 38 -40q0 -39 -38 -39h-129q-115 0 -115 -87v-52q0 -73 148 -73h209q141 0 211 -39t70 -120v-72zM283 727
q-5 -7 -11.5 -9t-13.5 -2q-11 0 -21 10t-10 23q0 12 11 23l139 149q12 12 26 12q12 0 21.5 -10.5t9.5 -22.5q0 -8 -2.5 -13t-7.5 -11z" />
    <glyph glyph-name="sacute" unicode="&#x15b;" horiz-adv-x="737" 
d="M50 0zM692 138q0 -138 -198 -138h-402q-42 0 -42 38q0 41 42 41h418q85 0 85 59v31q0 58 -96 58h-223q-220 0 -220 132v34q0 127 209 127h111q41 0 41 -39t-41 -39h-133q-93 0 -93 -49v-32q0 -57 110 -57h228q204 0 204 -135v-31zM233 579q-5 -7 -11.5 -9t-13.5 -2
q-11 0 -21 10t-10 23q0 12 11 23l139 149q12 12 26 12q12 0 21.5 -10.5t9.5 -22.5q0 -8 -2.5 -13t-7.5 -11z" />
    <glyph glyph-name="Scircumflex" unicode="&#x15c;" horiz-adv-x="853" 
d="M45 0zM789 157q0 -157 -255 -157h-452q-37 0 -37 43q0 38 37 38h465q140 0 140 81v58q0 89 -166 89h-206q-265 0 -265 143v68q0 159 232 159h113q38 0 38 -40q0 -39 -38 -39h-129q-115 0 -115 -87v-52q0 -73 148 -73h209q141 0 211 -39t70 -120v-72zM498 767
q11 -16 11 -25q0 -14 -12 -25.5t-23 -11.5q-13 0 -23 13v-1l-123 128l-122 -128q-9 -12 -21 -12q-15 0 -26 11.5t-11 25.5q0 5 2 9.5l5 11.5l138 145q8 7 16 11t19 4q13 0 21 -4t14 -11z" />
    <glyph glyph-name="scircumflex" unicode="&#x15d;" horiz-adv-x="737" 
d="M50 0zM692 138q0 -138 -198 -138h-402q-42 0 -42 38q0 41 42 41h418q85 0 85 59v31q0 58 -96 58h-223q-220 0 -220 132v34q0 127 209 127h111q41 0 41 -39t-41 -39h-133q-93 0 -93 -49v-32q0 -57 110 -57h228q204 0 204 -135v-31zM448 619q11 -16 11 -25q0 -14 -12 -25.5
t-23 -11.5q-13 0 -23 13v-1l-123 128l-122 -128q-9 -12 -21 -12q-15 0 -26 11.5t-11 25.5q0 5 2 9.5l5 11.5l138 145q8 7 16 11t19 4q13 0 21 -4t14 -11z" />
    <glyph glyph-name="Scedilla" unicode="&#x15e;" horiz-adv-x="853" 
d="M789 157q0 -157 -255 -157h-60v-43q0 -122 -134 -122h-59q-39 0 -39 35t39 35h61q48 0 48 52v43h-308q-37 0 -37 43q0 38 37 38h465q140 0 140 81v58q0 89 -166 89h-206q-265 0 -265 143v68q0 159 232 159h113q38 0 38 -40q0 -39 -38 -39h-129q-115 0 -115 -87v-52
q0 -73 148 -73h209q141 0 211 -39t70 -120v-72z" />
    <glyph glyph-name="scedilla" unicode="&#x15f;" horiz-adv-x="737" 
d="M690 138q0 -138 -199 -138h-41v-43q0 -122 -134 -122h-58q-39 0 -39 35t39 35h60q49 0 49 52v43h-275q-42 0 -42 38q0 41 42 41h416q85 0 85 59v31q0 58 -97 58h-220q-220 0 -220 132v34q0 127 209 127h111q41 0 41 -39t-41 -39h-133q-93 0 -93 -49v-32q0 -57 110 -57
h225q205 0 205 -135v-31z" />
    <glyph glyph-name="Scaron" unicode="&#x160;" horiz-adv-x="853" 
d="M45 0zM789 157q0 -157 -255 -157h-452q-37 0 -37 43q0 38 37 38h465q140 0 140 81v58q0 89 -166 89h-206q-265 0 -265 143v68q0 159 232 159h113q38 0 38 -40q0 -39 -38 -39h-129q-115 0 -115 -87v-52q0 -73 148 -73h209q141 0 211 -39t70 -120v-72zM160 856
q-12 12 -12 24q0 14 12 24.5t24 10.5q14 0 22 -11l123 -128l121 129q6 6 11.5 8t11.5 2q14 0 25 -11t11 -25q0 -10 -8 -20l-138 -145q-15 -16 -33 -16q-12 0 -20.5 4t-16.5 12z" />
    <glyph glyph-name="scaron" unicode="&#x161;" horiz-adv-x="754" 
d="M50 0zM692 138q0 -138 -198 -138h-402q-42 0 -42 38q0 41 42 41h418q85 0 85 59v31q0 58 -96 58h-223q-220 0 -220 132v34q0 127 209 127h111q41 0 41 -39t-41 -39h-133q-93 0 -93 -49v-32q0 -57 110 -57h228q204 0 204 -135v-31zM110 708q-12 12 -12 24q0 14 12 24.5
t24 10.5q14 0 22 -11l123 -128l121 129q6 6 11.5 8t11.5 2q14 0 25 -11t11 -25q0 -10 -8 -20l-138 -145q-15 -16 -33 -16q-12 0 -20.5 4t-16.5 12z" />
    <glyph glyph-name="Tcommaaccent" unicode="&#x162;" horiz-adv-x="749" 
d="M6 0zM425 600v-562q0 -43 -51 -43q-50 0 -50 43v562h-280q-38 0 -38 42q0 37 38 37h660q37 0 37 -37q0 -42 -37 -42h-279zM372 -15q33 0 33 -29q0 -5 -0.5 -10.5t-1.5 -10.5l-29 -110q-5 -15 -17 -22t-23 -7q-13 0 -21 8.5t-8 19.5l24 128q3 15 15.5 24t27.5 9z" />
    <glyph glyph-name="tcommaaccent" unicode="&#x163;" horiz-adv-x="444" 
d="M18 0zM198 442v-405q0 -42 -46 -42q-48 0 -48 42v405h-46q-40 0 -40 40q0 38 40 38h46v123q0 42 49 42q45 0 45 -42v-123h189q39 0 39 -39t-39 -39h-189zM149 -15q33 0 33 -29q0 -5 -0.5 -10.5t-1.5 -10.5l-29 -110q-5 -15 -17 -22t-23 -7q-13 0 -21 8.5t-8 19.5l24 128
q3 15 15.5 24t27.5 9z" />
    <glyph glyph-name="Tcaron" unicode="&#x164;" horiz-adv-x="749" 
d="M6 0zM425 600v-562q0 -43 -51 -43q-50 0 -50 43v562h-280q-38 0 -38 42q0 37 38 37h660q37 0 37 -37q0 -42 -37 -42h-279zM205 856q-12 12 -12 24q0 14 12 24.5t24 10.5q14 0 22 -11l123 -128l121 129q6 6 11.5 8t11.5 2q14 0 25 -11t11 -25q0 -10 -8 -20l-138 -145
q-15 -16 -33 -16q-12 0 -20.5 4t-16.5 12z" />
    <glyph glyph-name="tcaron" unicode="&#x165;" horiz-adv-x="556" 
d="M18 0zM198 442v-405q0 -42 -46 -42q-48 0 -48 42v405h-46q-40 0 -40 40q0 38 40 38h46v123q0 42 49 42q45 0 45 -42v-123h189q39 0 39 -39t-39 -39h-189zM523 685q33 0 33 -29q0 -5 -0.5 -10.5t-1.5 -10.5l-29 -110q-5 -15 -17 -22t-23 -7q-13 0 -21 8.5t-8 19.5l24 128
q3 15 15.5 24t27.5 9z" />
    <glyph glyph-name="Tbar" unicode="&#x166;" horiz-adv-x="749" 
d="M425 342v-304q0 -43 -51 -43q-50 0 -50 43v304h-130q-44 0 -44 38q0 43 44 43h130v177h-280q-38 0 -38 42q0 37 38 37h660q37 0 37 -37q0 -42 -37 -42h-279v-177h128q46 0 46 -41q0 -40 -46 -40h-128z" />
    <glyph glyph-name="tbar" unicode="&#x167;" horiz-adv-x="444" 
d="M198 227v-190q0 -42 -46 -42q-48 0 -48 42v190h-38q-45 0 -45 38q0 43 45 43h38v134h-46q-40 0 -40 40q0 38 40 38h46v123q0 42 49 42q45 0 45 -42v-123h189q39 0 39 -39t-39 -39h-189v-134h177q47 0 47 -41q0 -40 -47 -40h-177z" />
    <glyph glyph-name="Utilde" unicode="&#x168;" horiz-adv-x="932" 
d="M64 0zM868 187q0 -187 -335 -187h-153q-316 0 -316 187v456q0 42 49 42q52 0 52 -42v-448q0 -114 200 -114h185q218 0 218 114v448q0 42 50 42t50 -42v-456zM283 751q-41 0 -41 36q0 39 41 39h365q42 0 42 -37q0 -38 -42 -38h-365z" />
    <glyph glyph-name="utilde" unicode="&#x169;" 
d="M64 0zM758 151q0 -151 -264 -151h-164q-266 0 -266 151v337q0 40 46 40q47 0 47 -40v-337q0 -72 157 -72h195q153 0 153 70v339q0 39 49 39q47 0 47 -39v-337zM227 603q-41 0 -41 36q0 39 41 39h365q42 0 42 -37q0 -38 -42 -38h-365z" />
    <glyph glyph-name="Umacron" unicode="&#x16a;" horiz-adv-x="932" 
d="M64 0zM868 187q0 -187 -335 -187h-153q-316 0 -316 187v456q0 42 49 42q52 0 52 -42v-448q0 -114 200 -114h185q218 0 218 114v448q0 42 50 42t50 -42v-456zM286 748q-44 0 -44 39q0 40 44 40h358q46 0 46 -38q0 -41 -46 -41h-358z" />
    <glyph glyph-name="umacron" unicode="&#x16b;" 
d="M64 0zM758 151q0 -151 -264 -151h-164q-266 0 -266 151v337q0 40 46 40q47 0 47 -40v-337q0 -72 157 -72h195q153 0 153 70v339q0 39 49 39q47 0 47 -39v-337zM230 600q-44 0 -44 39q0 40 44 40h358q46 0 46 -38q0 -41 -46 -41h-358z" />
    <glyph glyph-name="Ubreve" unicode="&#x16c;" horiz-adv-x="932" 
d="M64 0zM868 187q0 -187 -335 -187h-153q-316 0 -316 187v456q0 42 49 42q52 0 52 -42v-448q0 -114 200 -114h185q218 0 218 114v448q0 42 50 42t50 -42v-456zM643 851q-12 -23 -27 -42.5t-36 -34.5t-49 -23.5t-65 -8.5q-38 0 -65.5 8.5t-48.5 23.5t-36 34.5t-27 42.5
q-7 10 -7 24q0 17 11.5 28t25.5 11q9 0 18.5 -5.5t16.5 -17.5q23 -45 46.5 -63.5t65.5 -18.5t64.5 19t46.5 63q6 12 16 17.5t20 5.5q14 0 25 -11t11 -28q0 -12 -6 -24z" />
    <glyph glyph-name="ubreve" unicode="&#x16d;" 
d="M64 0zM758 151q0 -151 -264 -151h-164q-266 0 -266 151v337q0 40 46 40q47 0 47 -40v-337q0 -72 157 -72h195q153 0 153 70v339q0 39 49 39q47 0 47 -39v-337zM588 703q-12 -23 -27 -42.5t-36 -34.5t-49 -23.5t-65 -8.5q-38 0 -65.5 8.5t-48.5 23.5t-36 34.5t-27 42.5
q-7 10 -7 24q0 17 11.5 28t25.5 11q9 0 18.5 -5.5t16.5 -17.5q23 -45 46.5 -63.5t65.5 -18.5t64.5 19t46.5 63q6 12 16 17.5t20 5.5q14 0 25 -11t11 -28q0 -12 -6 -24z" />
    <glyph glyph-name="Uring" unicode="&#x16e;" horiz-adv-x="932" 
d="M64 0zM868 187q0 -187 -335 -187h-153q-316 0 -316 187v456q0 42 49 42q52 0 52 -42v-448q0 -114 200 -114h185q218 0 218 114v448q0 42 50 42t50 -42v-456zM524 841q0 26 -17 42t-40 16q-26 0 -42.5 -16t-16.5 -42q0 -20 16.5 -36.5t42.5 -16.5q23 0 40 16.5t17 36.5z
M579 841q0 -22 -9 -42t-24 -35.5t-35.5 -25t-43.5 -9.5q-25 0 -46 9.5t-36 25t-23.5 35.5t-8.5 42q0 53 36 86h-1q31 30 79 30q23 0 43.5 -9t35.5 -24.5t24 -37t9 -45.5z" />
    <glyph glyph-name="uring" unicode="&#x16f;" 
d="M64 0zM758 151q0 -151 -264 -151h-164q-266 0 -266 151v337q0 40 46 40q47 0 47 -40v-337q0 -72 157 -72h195q153 0 153 70v339q0 39 49 39q47 0 47 -39v-337zM468 693q0 26 -17 42t-40 16q-26 0 -42.5 -16t-16.5 -42q0 -20 16.5 -36.5t42.5 -16.5q23 0 40 16.5t17 36.5z
M523 693q0 -22 -9 -42t-24 -35.5t-35.5 -25t-43.5 -9.5q-25 0 -46 9.5t-36 25t-23.5 35.5t-8.5 42q0 53 36 86h-1q31 30 79 30q23 0 43.5 -9t35.5 -24.5t24 -37t9 -45.5z" />
    <glyph glyph-name="Uhungarumlaut" unicode="&#x170;" horiz-adv-x="932" 
d="M64 0zM868 187q0 -187 -335 -187h-153q-316 0 -316 187v456q0 42 49 42q52 0 52 -42v-448q0 -114 200 -114h185q218 0 218 114v448q0 42 50 42t50 -42v-456zM333 724q-11 -12 -24 -12q-31 0 -31 32q0 14 9 23l144 154q12 12 27 12q32 0 32 -32q0 -12 -10 -25zM497 723
q-9 -11 -22 -11q-33 0 -33 32q0 15 11 23l143 154q10 12 28 12q30 0 30 -32q0 -12 -10 -25z" />
    <glyph glyph-name="uhungarumlaut" unicode="&#x171;" 
d="M64 0zM758 151q0 -151 -264 -151h-164q-266 0 -266 151v337q0 40 46 40q47 0 47 -40v-337q0 -72 157 -72h195q153 0 153 70v339q0 39 49 39q47 0 47 -39v-337zM278 576q-11 -12 -24 -12q-31 0 -31 32q0 14 9 23l144 154q12 12 27 12q32 0 32 -32q0 -12 -10 -25zM442 575
q-9 -11 -22 -11q-33 0 -33 32q0 15 11 23l143 154q10 12 28 12q30 0 30 -32q0 -12 -10 -25z" />
    <glyph glyph-name="Uogonek" unicode="&#x172;" horiz-adv-x="932" 
d="M599 2q-10 -2 -19.5 -2h-19.5h-27h-153q-316 0 -316 187v456q0 42 49 42q52 0 52 -42v-448q0 -114 200 -114h185q218 0 218 114v448q0 42 50 42t50 -42v-456q0 -146 -207 -180l-46 -53q-8 -9 -10 -16t-2 -13q0 -20 32 -20h17q38 0 38 -35t-38 -35h-31q-45 0 -69 11
t-24 43q0 18 7 33t24 35z" />
    <glyph glyph-name="uogonek" unicode="&#x173;" 
d="M554 2q-14 -1 -29.5 -1.5t-30.5 -0.5h-164q-266 0 -266 151v337q0 40 46 40q47 0 47 -40v-337q0 -72 157 -72h195q153 0 153 70v339q0 39 49 39q47 0 47 -39v-337q0 -111 -139 -139l-49 -58q-8 -10 -11 -16.5t-2 -12.5q0 -20 33 -20h16q39 0 39 -35t-39 -35h-30
q-45 0 -68.5 11t-23.5 43q0 33 30 68z" />
    <glyph glyph-name="Wcircumflex" unicode="&#x174;" horiz-adv-x="1275" 
d="M19 0zM641 557l-229 -520q-8 -18 -25 -28.5t-38 -10.5q-20 0 -37 10.5t-27 31.5l-264 581q-1 5 -1.5 9.5t-0.5 8.5q0 20 16.5 32.5t36.5 12.5q28 0 42 -27l237 -546l223 527q10 23 27 33.5t39 10.5q19 0 35.5 -10t24.5 -29l228 -532l231 546q12 28 44 28q19 0 36 -13
t17 -33q0 -11 -4 -19l-265 -578q-8 -22 -26 -33t-38 -11q-18 0 -37 10.5t-27 30.5zM807 767q11 -16 11 -25q0 -14 -12 -25.5t-23 -11.5q-13 0 -23 13v-1l-123 128l-122 -128q-9 -12 -21 -12q-15 0 -26 11.5t-11 25.5q0 5 2 9.5l5 11.5l138 145q8 7 16 11t19 4q13 0 21 -4
t14 -11z" />
    <glyph glyph-name="wcircumflex" unicode="&#x175;" horiz-adv-x="1049" 
d="M19 0zM820 29q-8 -17 -25 -25.5t-37 -8.5q-18 0 -35 8t-22 24l-176 380l-178 -380q-8 -17 -25.5 -25t-36.5 -8q-20 0 -36.5 8.5t-24.5 25.5l-201 432q-4 9 -4 19q0 21 15.5 34t33.5 13q10 0 20.5 -6t15.5 -17l185 -396l180 380q8 17 23 25.5t31 8.5q17 0 33.5 -8
t23.5 -25l180 -381l183 396q7 18 33 18q18 0 36 -11.5t18 -30.5q0 -9 -4 -16zM694 619q11 -16 11 -25q0 -14 -12 -25.5t-23 -11.5q-13 0 -23 13v-1l-123 128l-122 -128q-9 -12 -21 -12q-15 0 -26 11.5t-11 25.5q0 5 2 9.5l5 11.5l138 145q8 7 16 11t19 4q13 0 21 -4t14 -11z
" />
    <glyph glyph-name="Ycircumflex" unicode="&#x176;" horiz-adv-x="813" 
d="M19 0zM406 367l300 302q17 14 35 14q20 0 36 -13.5t16 -30.5q0 -16 -12 -28l-323 -323l-1 -251q-5 -42 -50 -42q-50 0 -50 43v250l-324 323q-14 14 -14 28q0 17 15.5 30t35.5 13q18 0 34 -13zM576 767q11 -16 11 -25q0 -14 -12 -25.5t-23 -11.5q-13 0 -23 13v-1l-123 128
l-122 -128q-9 -12 -21 -12q-15 0 -26 11.5t-11 25.5q0 5 2 9.5l5 11.5l138 145q8 7 16 11t19 4q13 0 21 -4t14 -11z" />
    <glyph glyph-name="ycircumflex" unicode="&#x177;" horiz-adv-x="820" 
d="M64 0zM753 -5q0 -143 -216 -143h-118q-37 0 -37 39q0 38 37 38h126q114 0 114 66v5h-348q-247 0 -247 151v337q0 39 47 39t47 -39v-337q0 -72 135 -72h366v409q0 39 46 39q48 0 48 -39v-493zM579 619q11 -16 11 -25q0 -14 -12 -25.5t-23 -11.5q-13 0 -23 13v-1l-123 128
l-122 -128q-9 -12 -21 -12q-15 0 -26 11.5t-11 25.5q0 5 2 9.5l5 11.5l138 145q8 7 16 11t19 4q13 0 21 -4t14 -11z" />
    <glyph glyph-name="Ydieresis" unicode="&#x178;" horiz-adv-x="813" 
d="M19 0zM406 367l300 302q17 14 35 14q20 0 36 -13.5t16 -30.5q0 -16 -12 -28l-323 -323l-1 -251q-5 -42 -50 -42q-50 0 -50 43v250l-324 323q-14 14 -14 28q0 17 15.5 30t35.5 13q18 0 34 -13zM367 791q0 -47 -58 -47q-57 0 -57 47q0 44 57 44q58 0 58 -44zM558 791
q0 -47 -56 -47q-59 0 -59 47q0 44 59 44q56 0 56 -44z" />
    <glyph glyph-name="Zacute" unicode="&#x179;" horiz-adv-x="804" 
d="M28 0zM625 600h-549q-37 0 -37 42q0 37 37 37h645q22 0 35 -15t13 -34q0 -8 -3.5 -16.5t-11.5 -14.5l-592 -518h570q37 0 37 -39q0 -42 -37 -42h-643q-28 0 -44.5 17.5t-16.5 37.5q0 21 18 38zM354 727q-5 -7 -11.5 -9t-13.5 -2q-11 0 -21 10t-10 23q0 12 11 23l139 149
q12 12 26 12q12 0 21.5 -10.5t9.5 -22.5q0 -8 -2.5 -13t-7.5 -11z" />
    <glyph glyph-name="zacute" unicode="&#x17a;" horiz-adv-x="784" 
d="M32 0zM571 442h-476q-40 0 -40 39t40 39h565q26 0 42 -15t16 -33q0 -12 -6.5 -23.5t-20.5 -21.5l-510 -348h524q38 0 38 -39q0 -40 -38 -40h-613q-26 0 -43 14.5t-17 34.5q0 14 8 23.5t23 20.5zM345 579q-5 -7 -11.5 -9t-13.5 -2q-11 0 -21 10t-10 23q0 12 11 23l139 149
q12 12 26 12q12 0 21.5 -10.5t9.5 -22.5q0 -8 -2.5 -13t-7.5 -11z" />
    <glyph glyph-name="Zdotaccent" unicode="&#x17b;" horiz-adv-x="804" 
d="M28 0zM625 600h-549q-37 0 -37 42q0 37 37 37h645q22 0 35 -15t13 -34q0 -8 -3.5 -16.5t-11.5 -14.5l-592 -518h570q37 0 37 -39q0 -42 -37 -42h-643q-28 0 -44.5 17.5t-16.5 37.5q0 21 18 38zM468 826q0 -51 -65 -51t-65 51q0 49 65 49t65 -49z" />
    <glyph glyph-name="zdotaccent" unicode="&#x17c;" horiz-adv-x="784" 
d="M32 0zM571 442h-476q-40 0 -40 39t40 39h565q26 0 42 -15t16 -33q0 -12 -6.5 -23.5t-20.5 -21.5l-510 -348h524q38 0 38 -39q0 -40 -38 -40h-613q-26 0 -43 14.5t-17 34.5q0 14 8 23.5t23 20.5zM457 678q0 -51 -65 -51t-65 51q0 49 65 49t65 -49z" />
    <glyph glyph-name="Zcaron" unicode="&#x17d;" horiz-adv-x="804" 
d="M28 0zM625 600h-549q-37 0 -37 42q0 37 37 37h645q22 0 35 -15t13 -34q0 -8 -3.5 -16.5t-11.5 -14.5l-592 -518h570q37 0 37 -39q0 -42 -37 -42h-643q-28 0 -44.5 17.5t-16.5 37.5q0 21 18 38zM234 856q-12 12 -12 24q0 14 12 24.5t24 10.5q14 0 22 -11l123 -128l121 129
q6 6 11.5 8t11.5 2q14 0 25 -11t11 -25q0 -10 -8 -20l-138 -145q-15 -16 -33 -16q-12 0 -20.5 4t-16.5 12z" />
    <glyph glyph-name="zcaron" unicode="&#x17e;" horiz-adv-x="784" 
d="M32 0zM571 442h-476q-40 0 -40 39t40 39h565q26 0 42 -15t16 -33q0 -12 -6.5 -23.5t-20.5 -21.5l-510 -348h524q38 0 38 -39q0 -40 -38 -40h-613q-26 0 -43 14.5t-17 34.5q0 14 8 23.5t23 20.5zM223 708q-12 12 -12 24q0 14 12 24.5t24 10.5q14 0 22 -11l123 -128
l121 129q6 6 11.5 8t11.5 2q14 0 25 -11t11 -25q0 -10 -8 -20l-138 -145q-15 -16 -33 -16q-12 0 -20.5 4t-16.5 12z" />
    <glyph glyph-name="Scommaaccent" unicode="&#x218;" horiz-adv-x="853" 
d="M45 0zM789 157q0 -157 -255 -157h-452q-37 0 -37 43q0 38 37 38h465q140 0 140 81v58q0 89 -166 89h-206q-265 0 -265 143v68q0 159 232 159h113q38 0 38 -40q0 -39 -38 -39h-129q-115 0 -115 -87v-52q0 -73 148 -73h209q141 0 211 -39t70 -120v-72zM443 -15q33 0 33 -29
q0 -5 -0.5 -10.5t-1.5 -10.5l-29 -110q-5 -15 -17 -22t-23 -7q-13 0 -21 8.5t-8 19.5l24 128q3 15 15.5 24t27.5 9z" />
    <glyph glyph-name="scommaaccent" unicode="&#x219;" horiz-adv-x="737" 
d="M50 0zM692 138q0 -138 -198 -138h-402q-42 0 -42 38q0 41 42 41h418q85 0 85 59v31q0 58 -96 58h-223q-220 0 -220 132v34q0 127 209 127h111q41 0 41 -39t-41 -39h-133q-93 0 -93 -49v-32q0 -57 110 -57h228q204 0 204 -135v-31zM393 -15q33 0 33 -29q0 -5 -0.5 -10.5
t-1.5 -10.5l-29 -110q-5 -15 -17 -22t-23 -7q-13 0 -21 8.5t-8 19.5l24 128q3 15 15.5 24t27.5 9z" />
    <glyph glyph-name="uni021A" unicode="&#x21a;" horiz-adv-x="749" 
d="M6 0zM425 600v-562q0 -43 -51 -43q-50 0 -50 43v562h-280q-38 0 -38 42q0 37 38 37h660q37 0 37 -37q0 -42 -37 -42h-279zM375 -15q33 0 33 -29q0 -5 -0.5 -10.5t-1.5 -10.5l-29 -110q-5 -15 -17 -22t-23 -7q-13 0 -21 8.5t-8 19.5l24 128q3 15 15.5 24t27.5 9z" />
    <glyph glyph-name="uni021B" unicode="&#x21b;" horiz-adv-x="444" 
d="M18 0zM198 442v-405q0 -42 -46 -42q-48 0 -48 42v405h-46q-40 0 -40 40q0 38 40 38h46v123q0 42 49 42q45 0 45 -42v-123h189q39 0 39 -39t-39 -39h-189zM147 -15q33 0 33 -29q0 -5 -0.5 -10.5t-1.5 -10.5l-29 -110q-5 -15 -17 -22t-23 -7q-13 0 -21 8.5t-8 19.5l24 128
q3 15 15.5 24t27.5 9z" />
    <glyph glyph-name="circumflex" unicode="&#x2c6;" horiz-adv-x="391" 
d="M365 619q11 -16 11 -25q0 -14 -12 -25.5t-23 -11.5q-13 0 -23 13v-1l-123 128l-122 -128q-9 -12 -21 -12q-15 0 -26 11.5t-11 25.5q0 5 2 9.5l5 11.5l138 145q8 7 16 11t19 4q13 0 21 -4t14 -11z" />
    <glyph glyph-name="caron" unicode="&#x2c7;" horiz-adv-x="391" 
d="M27 708q-12 12 -12 24q0 14 12 24.5t24 10.5q14 0 22 -11l123 -128l121 129q6 6 11.5 8t11.5 2q14 0 25 -11t11 -25q0 -10 -8 -20l-138 -145q-15 -16 -33 -16q-12 0 -20.5 4t-16.5 12z" />
    <glyph glyph-name="breve" unicode="&#x2d8;" horiz-adv-x="389" 
d="M372 703q-12 -23 -27 -42.5t-36 -34.5t-49 -23.5t-65 -8.5q-38 0 -65.5 8.5t-48.5 23.5t-36 34.5t-27 42.5q-7 10 -7 24q0 17 11.5 28t25.5 11q9 0 18.5 -5.5t16.5 -17.5q23 -45 46.5 -63.5t65.5 -18.5t64.5 19t46.5 63q6 12 16 17.5t20 5.5q14 0 25 -11t11 -28
q0 -12 -6 -24z" />
    <glyph glyph-name="dotaccent" unicode="&#x2d9;" horiz-adv-x="160" 
d="M145 678q0 -51 -65 -51t-65 51q0 49 65 49t65 -49z" />
    <glyph glyph-name="ring" unicode="&#x2da;" horiz-adv-x="256" 
d="M186 693q0 26 -17 42t-40 16q-26 0 -42.5 -16t-16.5 -42q0 -20 16.5 -36.5t42.5 -16.5q23 0 40 16.5t17 36.5zM241 693q0 -22 -9 -42t-24 -35.5t-35.5 -25t-43.5 -9.5q-25 0 -46 9.5t-36 25t-23.5 35.5t-8.5 42q0 53 36 86h-1q31 30 79 30q23 0 43.5 -9t35.5 -24.5
t24 -37t9 -45.5z" />
    <glyph glyph-name="ogonek" unicode="&#x2db;" horiz-adv-x="191" 
d="M88 5q11 11 29 11q23 0 23 -13q0 -3 -4 -8l-36 -41q-8 -9 -10 -16t-2 -13q0 -20 32 -20h17q40 0 40 -35t-40 -35h-30q-45 0 -68.5 11t-23.5 43q0 19 7 33.5t24 34.5z" />
    <glyph glyph-name="tilde" unicode="&#x2dc;" horiz-adv-x="478" 
d="M56 603q-41 0 -41 36q0 39 41 39h365q42 0 42 -37q0 -38 -42 -38h-365z" />
    <glyph glyph-name="hungarumlaut" unicode="&#x2dd;" horiz-adv-x="406" 
d="M70 576q-11 -12 -24 -12q-31 0 -31 32q0 14 9 23l144 154q12 12 27 12q32 0 32 -32q0 -12 -10 -25zM234 575q-9 -11 -22 -11q-33 0 -33 32q0 15 11 23l143 154q10 12 28 12q30 0 30 -32q0 -12 -10 -25z" />
    <glyph glyph-name="commaaccent" unicode="&#x326;" horiz-adv-x="284" 
d="M159 -15q33 0 33 -29q0 -5 -0.5 -10.5t-1.5 -10.5l-29 -110q-5 -15 -17 -22t-23 -7q-13 0 -21 8.5t-8 19.5l24 128q3 15 15.5 24t27.5 9z" />
    <glyph glyph-name="Wgrave" unicode="&#x1e80;" horiz-adv-x="1275" 
d="M19 0zM641 557l-229 -520q-8 -18 -25 -28.5t-38 -10.5q-20 0 -37 10.5t-27 31.5l-264 581q-1 5 -1.5 9.5t-0.5 8.5q0 20 16.5 32.5t36.5 12.5q28 0 42 -27l237 -546l223 527q10 23 27 33.5t39 10.5q19 0 35.5 -10t24.5 -29l228 -532l231 546q12 28 44 28q19 0 36 -13
t17 -33q0 -11 -4 -19l-265 -578q-8 -22 -26 -33t-38 -11q-18 0 -37 10.5t-27 30.5zM545 876q-11 11 -11 24q0 12 10 22.5t21 10.5q16 0 25 -12l141 -149q10 -11 10 -23q0 -13 -9.5 -23t-21.5 -10q-7 0 -13 2t-13 9z" />
    <glyph glyph-name="wgrave" unicode="&#x1e81;" horiz-adv-x="1049" 
d="M19 0zM820 29q-8 -17 -25 -25.5t-37 -8.5q-18 0 -35 8t-22 24l-176 380l-178 -380q-8 -17 -25.5 -25t-36.5 -8q-20 0 -36.5 8.5t-24.5 25.5l-201 432q-4 9 -4 19q0 21 15.5 34t33.5 13q10 0 20.5 -6t15.5 -17l185 -396l180 380q8 17 23 25.5t31 8.5q17 0 33.5 -8
t23.5 -25l180 -381l183 396q7 18 33 18q18 0 36 -11.5t18 -30.5q0 -9 -4 -16zM432 728q-11 11 -11 24q0 12 10 22.5t21 10.5q16 0 25 -12l141 -149q10 -11 10 -23q0 -13 -9.5 -23t-21.5 -10q-7 0 -13 2t-13 9z" />
    <glyph glyph-name="Wacute" unicode="&#x1e82;" horiz-adv-x="1275" 
d="M19 0zM641 557l-229 -520q-8 -18 -25 -28.5t-38 -10.5q-20 0 -37 10.5t-27 31.5l-264 581q-1 5 -1.5 9.5t-0.5 8.5q0 20 16.5 32.5t36.5 12.5q28 0 42 -27l237 -546l223 527q10 23 27 33.5t39 10.5q19 0 35.5 -10t24.5 -29l228 -532l231 546q12 28 44 28q19 0 36 -13
t17 -33q0 -11 -4 -19l-265 -578q-8 -22 -26 -33t-38 -11q-18 0 -37 10.5t-27 30.5zM590 727q-5 -7 -11.5 -9t-13.5 -2q-11 0 -21 10t-10 23q0 12 11 23l139 149q12 12 26 12q12 0 21.5 -10.5t9.5 -22.5q0 -8 -2.5 -13t-7.5 -11z" />
    <glyph glyph-name="wacute" unicode="&#x1e83;" horiz-adv-x="1049" 
d="M19 0zM820 29q-8 -17 -25 -25.5t-37 -8.5q-18 0 -35 8t-22 24l-176 380l-178 -380q-8 -17 -25.5 -25t-36.5 -8q-20 0 -36.5 8.5t-24.5 25.5l-201 432q-4 9 -4 19q0 21 15.5 34t33.5 13q10 0 20.5 -6t15.5 -17l185 -396l180 380q8 17 23 25.5t31 8.5q17 0 33.5 -8
t23.5 -25l180 -381l183 396q7 18 33 18q18 0 36 -11.5t18 -30.5q0 -9 -4 -16zM477 579q-5 -7 -11.5 -9t-13.5 -2q-11 0 -21 10t-10 23q0 12 11 23l139 149q12 12 26 12q12 0 21.5 -10.5t9.5 -22.5q0 -8 -2.5 -13t-7.5 -11z" />
    <glyph glyph-name="Wdieresis" unicode="&#x1e84;" horiz-adv-x="1275" 
d="M19 0zM641 557l-229 -520q-8 -18 -25 -28.5t-38 -10.5q-20 0 -37 10.5t-27 31.5l-264 581q-1 5 -1.5 9.5t-0.5 8.5q0 20 16.5 32.5t36.5 12.5q28 0 42 -27l237 -546l223 527q10 23 27 33.5t39 10.5q19 0 35.5 -10t24.5 -29l228 -532l231 546q12 28 44 28q19 0 36 -13
t17 -33q0 -11 -4 -19l-265 -578q-8 -22 -26 -33t-38 -11q-18 0 -37 10.5t-27 30.5zM599 791q0 -47 -58 -47q-57 0 -57 47q0 44 57 44q58 0 58 -44zM790 791q0 -47 -56 -47q-59 0 -59 47q0 44 59 44q56 0 56 -44z" />
    <glyph glyph-name="wdieresis" unicode="&#x1e85;" horiz-adv-x="1049" 
d="M19 0zM820 29q-8 -17 -25 -25.5t-37 -8.5q-18 0 -35 8t-22 24l-176 380l-178 -380q-8 -17 -25.5 -25t-36.5 -8q-20 0 -36.5 8.5t-24.5 25.5l-201 432q-4 9 -4 19q0 21 15.5 34t33.5 13q10 0 20.5 -6t15.5 -17l185 -396l180 380q8 17 23 25.5t31 8.5q17 0 33.5 -8
t23.5 -25l180 -381l183 396q7 18 33 18q18 0 36 -11.5t18 -30.5q0 -9 -4 -16zM487 643q0 -47 -58 -47q-57 0 -57 47q0 44 57 44q58 0 58 -44zM678 643q0 -47 -56 -47q-59 0 -59 47q0 44 59 44q56 0 56 -44z" />
    <glyph glyph-name="Ygrave" unicode="&#x1ef2;" horiz-adv-x="813" 
d="M19 0zM406 367l300 302q17 14 35 14q20 0 36 -13.5t16 -30.5q0 -16 -12 -28l-323 -323l-1 -251q-5 -42 -50 -42q-50 0 -50 43v250l-324 323q-14 14 -14 28q0 17 15.5 30t35.5 13q18 0 34 -13zM314 876q-11 11 -11 24q0 12 10 22.5t21 10.5q16 0 25 -12l141 -149
q10 -11 10 -23q0 -13 -9.5 -23t-21.5 -10q-7 0 -13 2t-13 9z" />
    <glyph glyph-name="ygrave" unicode="&#x1ef3;" horiz-adv-x="820" 
d="M64 0zM753 -5q0 -143 -216 -143h-118q-37 0 -37 39q0 38 37 38h126q114 0 114 66v5h-348q-247 0 -247 151v337q0 39 47 39t47 -39v-337q0 -72 135 -72h366v409q0 39 46 39q48 0 48 -39v-493zM318 728q-11 11 -11 24q0 12 10 22.5t21 10.5q16 0 25 -12l141 -149
q10 -11 10 -23q0 -13 -9.5 -23t-21.5 -10q-7 0 -13 2t-13 9z" />
    <glyph glyph-name="endash" unicode="&#x2013;" horiz-adv-x="557" 
d="M52 246q-39 0 -39 36q0 39 39 39h456q35 0 35 -37q0 -38 -35 -38h-456z" />
    <glyph glyph-name="emdash" unicode="&#x2014;" horiz-adv-x="711" 
d="M52 246q-39 0 -39 36q0 39 39 39h611q35 0 35 -37q0 -38 -35 -38h-611z" />
    <glyph glyph-name="quoteleft" unicode="&#x2018;" horiz-adv-x="219" 
d="M44 639q-1 2 -1 5v8q0 17 13 27t30 10q20 0 38 -11.5t20 -32.5l32 -161q1 -2 1 -7v-5q0 -18 -12.5 -27t-29.5 -9q-15 0 -30 9t-20 31z" />
    <glyph glyph-name="quoteright" unicode="&#x2019;" horiz-adv-x="218" 
d="M133 476q-6 -22 -21.5 -31t-30.5 -9q-16 0 -27 9t-11 27q0 2 0.5 4.5l1.5 7.5l28 161q5 21 21.5 32.5t36.5 11.5q17 0 31 -10t14 -27q0 -10 -1 -13z" />
    <glyph glyph-name="quotesinglbase" unicode="&#x201a;" horiz-adv-x="219" 
d="M44 0zM134 -63q-5 -20 -21 -29.5t-30 -9.5q-17 0 -28 11.5t-11 25.5q0 1 0.5 1.5t0.5 2.5l31 166q4 22 21 34t35 12q20 0 32.5 -10.5t12.5 -28.5q0 -9 -1 -11z" />
    <glyph glyph-name="quotedblleft" unicode="&#x201c;" horiz-adv-x="355" 
d="M44 639q-1 2 -1 5v8q0 17 13 27t29 10q21 0 39 -11.5t20 -32.5l31 -161q1 -2 1 -7v-5q0 -18 -12 -27t-29 -9q-14 0 -29 9t-22 31zM181 639q-1 1 -1 4q0 1 -1 1v8q0 17 13 27t30 10q20 0 36.5 -11.5t21.5 -32.5l31 -161q1 -2 1 -7v-5q0 -18 -11.5 -27t-28.5 -9
q-16 0 -31.5 9t-20.5 31z" />
    <glyph glyph-name="quotedblright" unicode="&#x201d;" horiz-adv-x="354" 
d="M133 476q-5 -22 -20.5 -31t-30.5 -9q-17 0 -28 9t-11 28q0 8 1 11l29 161q5 21 21 32.5t37 11.5q18 0 32 -10t14 -29q0 -1 -2 -11zM268 476q-5 -22 -21 -31t-30 -9q-17 0 -28 9t-11 28v11l32 161q3 21 19.5 32.5t36.5 11.5q19 0 32 -10t13 -29q0 -1 -2 -11z" />
    <glyph glyph-name="quotedblbase" unicode="&#x201e;" horiz-adv-x="400" 
d="M44 0zM316 -63q-5 -20 -21 -29.5t-30 -9.5q-17 0 -28 11.5t-11 25.5q0 1 0.5 1.5t0.5 2.5l31 166q4 22 21 34t35 12q20 0 32.5 -10.5t12.5 -28.5q0 -9 -1 -11zM134 -63q-5 -20 -21 -29.5t-30 -9.5q-17 0 -28 11.5t-11 25.5q0 1 0.5 1.5t0.5 2.5l31 166q4 22 21 34t35 12
q20 0 32.5 -10.5t12.5 -28.5q0 -9 -1 -11z" />
    <glyph glyph-name="dagger" unicode="&#x2020;" horiz-adv-x="411" 
d="M264 442l-13 -405q-2 -42 -45 -42q-46 0 -46 42l-16 405h-89q-41 0 -41 40q0 38 41 38h82v109q0 56 70 56q67 0 67 -56v-109h86q37 0 37 -39t-37 -39h-96z" />
    <glyph glyph-name="daggerdbl" unicode="&#x2021;" horiz-adv-x="428" 
d="M140 211l13 116l-15 115h-90q-41 0 -41 40q0 38 41 38h82v109q0 56 69 56q67 0 67 -56v-109h87q38 0 38 -39t-38 -39h-95l-14 -115l14 -116h91q42 0 42 -41q0 -40 -42 -40h-82v-108q0 -56 -69 -56q-68 0 -68 56v108h-84q-39 0 -39 40q0 41 39 41h94z" />
    <glyph glyph-name="bullet" unicode="&#x2022;" horiz-adv-x="455" 
d="M376 228q0 -63 -90 -63h-110q-98 0 -98 63v105q0 66 98 66h109q91 0 91 -60v-111z" />
    <glyph glyph-name="ellipsis" unicode="&#x2026;" horiz-adv-x="681" 
d="M179 53q0 -52 -65 -52t-65 52q0 49 65 49t65 -49zM406 53q0 -52 -65 -52t-65 52q0 49 65 49t65 -49zM633 53q0 -52 -65 -52t-65 52q0 49 65 49t65 -49z" />
    <glyph glyph-name="perthousand" unicode="&#x2030;" horiz-adv-x="1540" 
d="M902 215q0 48 -86 48h-61q-98 0 -98 -56v-78q0 -51 99 -51h62q84 0 84 51v86zM372 558q0 46 -86 46h-59q-98 0 -98 -57v-77q0 -54 98 -54h61q84 0 84 54v88zM766 693q10 15 28 15q22 0 39.5 -17.5t17.5 -36.5q0 -8 -2 -14.5t-8 -12.5l-558 -623q-5 -8 -13.5 -11t-17.5 -3
q-20 0 -37.5 15.5t-17.5 38.5q0 6 2.5 13.5t8.5 12.5zM994 129q0 -129 -192 -129h-33q-199 0 -199 129v75q0 135 203 135h29q192 0 192 -133v-77zM465 472q0 -130 -193 -130h-33q-199 0 -199 130v73q0 134 203 134h29q193 0 193 -133v-74zM1403 215q0 48 -85 48h-61
q-97 0 -97 -56v-78q0 -51 98 -51h62q83 0 83 51v86zM1496 129q0 -129 -192 -129h-35q-198 0 -198 129v75q0 135 204 135h29q192 0 192 -133v-77z" />
    <glyph glyph-name="guilsinglleft" unicode="&#x2039;" horiz-adv-x="318" 
d="M232 491q12 9 29 11q18 0 30.5 -15t12.5 -33q0 -22 -20 -37l-157 -118l157 -116q21 -17 21 -38q0 -18 -13 -32.5t-31 -14.5q-8 0 -15.5 2t-13.5 8l-199 155q-11 8 -15.5 16.5t-4.5 20.5q0 23 21 37z" />
    <glyph glyph-name="guilsinglright" unicode="&#x203a;" horiz-adv-x="318" 
d="M284 337q10 -9 15.5 -17.5t5.5 -19.5q0 -22 -21 -37l-200 -155q-10 -10 -26 -10q-19 0 -32 14t-13 33q0 11 4.5 20.5t15.5 17.5l158 116l-158 118q-12 8 -15.5 18t-3.5 19q0 20 12.5 33.5t31.5 13.5q6 -3 11.5 -4t13.5 -6z" />
    <glyph glyph-name="fraction" unicode="&#x2044;" horiz-adv-x="165" 
d="M-190 -1q-13 -13 -29 -13q-45 0 -45 46q0 17 14 33l594 612q8 9 17 12t19 3q50 0 50 -44q0 -19 -17 -36z" />
    <glyph glyph-name="Euro" unicode="&#x20ac;" horiz-adv-x="847" 
d="M183 382v-96h338q34 0 34 -38q0 -35 -34 -35h-338v-39q0 -93 187 -93h417q36 0 36 -39q0 -42 -36 -42h-430q-276 0 -276 170v43h-26q-36 0 -36 36q0 37 36 37h26v96h-26q-36 0 -36 41q0 35 36 35h26v62q0 159 269 159h405q37 0 37 -39q0 -40 -37 -40h-401
q-171 0 -171 -80v-62h435q38 0 38 -38t-38 -38h-435z" />
    <glyph glyph-name="trademark" unicode="&#x2122;" horiz-adv-x="1011" 
d="M253 605v-304q0 -34 -41 -34q-44 0 -44 34v304h-80q-29 0 -29 35q0 31 29 31h240q31 0 31 -31q0 -35 -31 -35h-75zM953 301q0 -34 -43 -34q-41 0 -41 34v252l-118 -180q-21 -27 -59 -27q-41 0 -62 27l-116 178v-250q0 -34 -42 -34t-42 34v324q0 49 48 49q32 0 60 -31
l154 -218l154 225q22 24 57 24q50 0 50 -51v-322z" />
    <glyph glyph-name="minus" unicode="&#x2212;" horiz-adv-x="496" 
d="M71 246q-40 0 -40 36q0 39 40 39h359q34 0 34 -37q0 -38 -34 -38h-359z" />
    <glyph glyph-name="nonmarkingreturn" horiz-adv-x="304" 
 />
    <glyph glyph-name=".null" horiz-adv-x="0" 
 />
    <glyph glyph-name=".ttfautohint" horiz-adv-x="0" 
d="M0 0z" />
    </font>
</defs>
</svg>
